<?xml version="1.0" encoding="UTF-8" standalone="no"?>
<!DOCTYPE svg PUBLIC "-//W3C//DTD SVG 1.1//EN"
 "http://www.w3.org/Graphics/SVG/1.1/DTD/svg11.dtd">
<!-- Generated by graphviz version 2.38.0 (20140413.2041)
 -->
<!-- Title: kernel Pages: 1 -->
<svg width="128pt" height="182pt"
 viewBox="0.00 0.00 128.00 182.00" xmlns="http://www.w3.org/2000/svg" xmlns:xlink="http://www.w3.org/1999/xlink">
<g id="graph0" class="graph" transform="scale(1 1) rotate(0) translate(4 178)">
<title>kernel</title>
<polygon fill="white" stroke="none" points="-4,4 -4,-178 124,-178 124,4 -4,4"/>
<g id="clust1" class="cluster"><title>cluster_dir_dir_a_c</title>
<polygon fill="none" stroke="black" points="8,-91 8,-166 112,-166 112,-91 8,-91"/>
<text text-anchor="middle" x="60" y="-150.8" font-family="Times,serif" font-size="14.00">dir/dir/a.c</text>
</g>
<g id="clust2" class="cluster"><title>cluster_dir_dir_b_c</title>
<polygon fill="none" stroke="black" points="8,-8 8,-83 112,-83 112,-8 8,-8"/>
<text text-anchor="middle" x="60" y="-67.8" font-family="Times,serif" font-size="14.00">dir/dir/b.c</text>
</g>
<!-- func_a() -->
<g id="node1" class="node"><title>func_a()</title>
<ellipse fill="lightgrey" stroke="black" cx="60" cy="-117" rx="43.5923" ry="18"/>
<text text-anchor="middle" x="60" y="-113.3" font-family="Times,serif" font-size="14.00">func_a()</text>
</g>
<!-- func_b() -->
<g id="node2" class="node"><title>func_b()</title>
<ellipse fill="lightgrey" stroke="black" cx="60" cy="-34" rx="43.5923" ry="18"/>
<text text-anchor="middle" x="60" y="-30.3" font-family="Times,serif" font-size="14.00">func_b()</text>
</g>
<!-- func_a()&#45;&gt;func_b() -->
<g id="edge1" class="edge"><title>func_a()&#45;&gt;func_b()</title>
<path fill="none" stroke="black" d="M60,-98.822C60,-88.1903 60,-74.306 60,-62.2035"/>
<polygon fill="black" stroke="black" points="63.5001,-62.1532 60,-52.1533 56.5001,-62.1533 63.5001,-62.1532"/>
</g>
</g>
</svg>
