<?xml version="1.0" encoding="UTF-8" standalone="no"?>
<!DOCTYPE svg PUBLIC "-//W3C//DTD SVG 1.1//EN"
 "http://www.w3.org/Graphics/SVG/1.1/DTD/svg11.dtd">
<!-- Generated by graphviz version 2.40.1 (20161225.0304)
 -->
<!-- Title: kernel Pages: 1 -->
<svg width="636pt" height="786pt"
 viewBox="0.00 0.00 636.00 786.00" xmlns="http://www.w3.org/2000/svg" xmlns:xlink="http://www.w3.org/1999/xlink">
<g id="graph0" class="graph" transform="scale(1 1) rotate(0) translate(4 782)">
<title>kernel</title>
<polygon fill="#ffffff" stroke="transparent" points="-4,4 -4,-782 632,-782 632,4 -4,4"/>
<g id="clust1" class="cluster">
<title>cluster_dlfcn_dlopen_c</title>
<polygon fill="none" stroke="#000000" points="182,-551 182,-770 314,-770 314,-551 182,-551"/>
<text text-anchor="middle" x="248" y="-754.8" font-family="Times,serif" font-size="14.00" fill="#000000">dlfcn/dlopen.c</text>
</g>
<g id="clust2" class="cluster">
<title>cluster_elf_dl_open_c</title>
<polygon fill="none" stroke="#000000" points="166,-396 166,-543 330,-543 330,-396 166,-396"/>
<text text-anchor="middle" x="248" y="-527.8" font-family="Times,serif" font-size="14.00" fill="#000000">elf/dl&#45;open.c</text>
</g>
<g id="clust3" class="cluster">
<title>cluster_elf_dl_reloc_c</title>
<polygon fill="none" stroke="#000000" points="264,-313 264,-388 452,-388 452,-313 264,-313"/>
<text text-anchor="middle" x="358" y="-372.8" font-family="Times,serif" font-size="14.00" fill="#000000">elf/dl&#45;reloc.c</text>
</g>
<g id="clust4" class="cluster">
<title>cluster_elf_dynamic_link_h</title>
<polygon fill="none" stroke="#000000" points="246,-230 246,-305 508,-305 508,-230 246,-230"/>
<text text-anchor="middle" x="377" y="-289.8" font-family="Times,serif" font-size="14.00" fill="#000000">elf/dynamic&#45;link.h</text>
</g>
<g id="clust5" class="cluster">
<title>cluster_sysdeps_x86_64_dl_machine_h</title>
<polygon fill="none" stroke="#000000" points="253,-147 253,-222 501,-222 501,-147 253,-147"/>
<text text-anchor="middle" x="377" y="-206.8" font-family="Times,serif" font-size="14.00" fill="#000000">sysdeps/x86_64/dl&#45;machine.h</text>
</g>
<g id="clust6" class="cluster">
<title>cluster_sysdeps_x86_64_dl_trampoline_s_h</title>
<polygon fill="none" stroke="#000000" points="231,-64 231,-139 620,-139 620,-64 231,-64"/>
<text text-anchor="middle" x="425.5" y="-123.8" font-family="Times,serif" font-size="14.00" fill="#000000">sysdeps/x86_64/dl&#45;trampoline.S/h</text>
</g>
<g id="clust7" class="cluster">
<title>cluster_elf_dl_load_c</title>
<polygon fill="none" stroke="#000000" points="8,-230 8,-388 238,-388 238,-230 8,-230"/>
<text text-anchor="middle" x="123" y="-372.8" font-family="Times,serif" font-size="14.00" fill="#000000">elf/dl&#45;load.c</text>
</g>
<g id="clust8" class="cluster">
<title>cluster_elf_dl_map_segments_h</title>
<polygon fill="none" stroke="#000000" points="30,-147 30,-222 216,-222 216,-147 30,-147"/>
<text text-anchor="middle" x="123" y="-206.8" font-family="Times,serif" font-size="14.00" fill="#000000">elf/dl&#45;map&#45;segments.h</text>
</g>
<!-- dlopen() -->
<g id="node1" class="node">
<title>dlopen()</title>
<ellipse fill="#d3d3d3" stroke="#000000" cx="248" cy="-721" rx="40.0939" ry="18"/>
<text text-anchor="middle" x="248" y="-717.3" font-family="Times,serif" font-size="14.00" fill="#000000">dlopen()</text>
</g>
<!-- __dlopen() -->
<g id="node2" class="node">
<title>__dlopen()</title>
<ellipse fill="#d3d3d3" stroke="#000000" cx="248" cy="-649" rx="49.2915" ry="18"/>
<text text-anchor="middle" x="248" y="-645.3" font-family="Times,serif" font-size="14.00" fill="#000000">__dlopen()</text>
</g>
<!-- dlopen()&#45;&gt;__dlopen() -->
<g id="edge1" class="edge">
<title>dlopen()&#45;&gt;__dlopen()</title>
<path fill="none" stroke="#000000" d="M248,-702.8314C248,-695.131 248,-685.9743 248,-677.4166"/>
<polygon fill="#000000" stroke="#000000" points="251.5001,-677.4132 248,-667.4133 244.5001,-677.4133 251.5001,-677.4132"/>
</g>
<!-- dlopen_doit() -->
<g id="node3" class="node">
<title>dlopen_doit()</title>
<ellipse fill="#d3d3d3" stroke="#000000" cx="248" cy="-577" rx="58.4896" ry="18"/>
<text text-anchor="middle" x="248" y="-573.3" font-family="Times,serif" font-size="14.00" fill="#000000">dlopen_doit()</text>
</g>
<!-- __dlopen()&#45;&gt;dlopen_doit() -->
<g id="edge2" class="edge">
<title>__dlopen()&#45;&gt;dlopen_doit()</title>
<path fill="none" stroke="#000000" d="M248,-630.8314C248,-623.131 248,-613.9743 248,-605.4166"/>
<polygon fill="#000000" stroke="#000000" points="251.5001,-605.4132 248,-595.4133 244.5001,-605.4133 251.5001,-605.4132"/>
</g>
<!-- _dl_open() -->
<g id="node4" class="node">
<title>_dl_open()</title>
<ellipse fill="#d3d3d3" stroke="#000000" cx="248" cy="-494" rx="49.2915" ry="18"/>
<text text-anchor="middle" x="248" y="-490.3" font-family="Times,serif" font-size="14.00" fill="#000000">_dl_open()</text>
</g>
<!-- dlopen_doit()&#45;&gt;_dl_open() -->
<g id="edge3" class="edge">
<title>dlopen_doit()&#45;&gt;_dl_open()</title>
<path fill="none" stroke="#000000" d="M248,-558.9902C248,-548.2963 248,-534.4994 248,-522.3706"/>
<polygon fill="#000000" stroke="#000000" points="251.5001,-522.2612 248,-512.2612 244.5001,-522.2613 251.5001,-522.2612"/>
</g>
<!-- dl_open_worker() -->
<g id="node5" class="node">
<title>dl_open_worker()</title>
<ellipse fill="#d3d3d3" stroke="#000000" cx="248" cy="-422" rx="74.187" ry="18"/>
<text text-anchor="middle" x="248" y="-418.3" font-family="Times,serif" font-size="14.00" fill="#000000">dl_open_worker()</text>
</g>
<!-- _dl_open()&#45;&gt;dl_open_worker() -->
<g id="edge4" class="edge">
<title>_dl_open()&#45;&gt;dl_open_worker()</title>
<path fill="none" stroke="#000000" d="M248,-475.8314C248,-468.131 248,-458.9743 248,-450.4166"/>
<polygon fill="#000000" stroke="#000000" points="251.5001,-450.4132 248,-440.4133 244.5001,-450.4133 251.5001,-450.4132"/>
</g>
<!-- _dl_relocate_object() -->
<g id="node6" class="node">
<title>_dl_relocate_object()</title>
<ellipse fill="#d3d3d3" stroke="#000000" cx="358" cy="-339" rx="85.5853" ry="18"/>
<text text-anchor="middle" x="358" y="-335.3" font-family="Times,serif" font-size="14.00" fill="#000000">_dl_relocate_object()</text>
</g>
<!-- dl_open_worker()&#45;&gt;_dl_relocate_object() -->
<g id="edge5" class="edge">
<title>dl_open_worker()&#45;&gt;_dl_relocate_object()</title>
<path fill="none" stroke="#000000" d="M270.7921,-404.8023C286.9078,-392.6423 308.7199,-376.1841 326.4979,-362.7697"/>
<polygon fill="#000000" stroke="#000000" points="328.9842,-365.2783 334.8587,-356.4612 324.768,-359.6905 328.9842,-365.2783"/>
</g>
<!-- _dl_map_object() -->
<g id="node11" class="node">
<title>_dl_map_object()</title>
<ellipse fill="#d3d3d3" stroke="#000000" cx="140" cy="-339" rx="73.387" ry="18"/>
<text text-anchor="middle" x="140" y="-335.3" font-family="Times,serif" font-size="14.00" fill="#000000">_dl_map_object()</text>
</g>
<!-- dl_open_worker()&#45;&gt;_dl_map_object() -->
<g id="edge6" class="edge">
<title>dl_open_worker()&#45;&gt;_dl_map_object()</title>
<path fill="none" stroke="#000000" d="M225.6223,-404.8023C209.6934,-392.5607 188.0964,-375.963 170.5784,-362.5001"/>
<polygon fill="#000000" stroke="#000000" points="172.4107,-359.4941 162.349,-356.1756 168.1452,-365.0444 172.4107,-359.4941"/>
</g>
<!-- ELF_DYNAMIC_RELOCATE -->
<g id="node7" class="node">
<title>ELF_DYNAMIC_RELOCATE</title>
<ellipse fill="#d3d3d3" stroke="#000000" cx="377" cy="-256" rx="123.4781" ry="18"/>
<text text-anchor="middle" x="377" y="-252.3" font-family="Times,serif" font-size="14.00" fill="#000000">ELF_DYNAMIC_RELOCATE</text>
</g>
<!-- _dl_relocate_object()&#45;&gt;ELF_DYNAMIC_RELOCATE -->
<g id="edge7" class="edge">
<title>_dl_relocate_object()&#45;&gt;ELF_DYNAMIC_RELOCATE</title>
<path fill="none" stroke="#000000" d="M362.1227,-320.9902C364.5707,-310.2963 367.7291,-296.4994 370.5055,-284.3706"/>
<polygon fill="#000000" stroke="#000000" points="374,-284.7901 372.8197,-274.2612 367.1765,-283.2281 374,-284.7901"/>
</g>
<!-- elf_machine_runtime_setup() -->
<g id="node8" class="node">
<title>elf_machine_runtime_setup()</title>
<ellipse fill="#d3d3d3" stroke="#000000" cx="377" cy="-173" rx="115.8798" ry="18"/>
<text text-anchor="middle" x="377" y="-169.3" font-family="Times,serif" font-size="14.00" fill="#000000">elf_machine_runtime_setup()</text>
</g>
<!-- ELF_DYNAMIC_RELOCATE&#45;&gt;elf_machine_runtime_setup() -->
<g id="edge8" class="edge">
<title>ELF_DYNAMIC_RELOCATE&#45;&gt;elf_machine_runtime_setup()</title>
<path fill="none" stroke="#000000" d="M377,-237.9902C377,-227.2963 377,-213.4994 377,-201.3706"/>
<polygon fill="#000000" stroke="#000000" points="380.5001,-201.2612 377,-191.2612 373.5001,-201.2613 380.5001,-201.2612"/>
</g>
<!-- _dl_runtime_profile() -->
<g id="node9" class="node">
<title>_dl_runtime_profile()</title>
<ellipse fill="#d3d3d3" stroke="#000000" cx="327" cy="-90" rx="87.9851" ry="18"/>
<text text-anchor="middle" x="327" y="-86.3" font-family="Times,serif" font-size="14.00" fill="#000000">_dl_runtime_profile()</text>
</g>
<!-- elf_machine_runtime_setup()&#45;&gt;_dl_runtime_profile() -->
<g id="edge9" class="edge">
<title>elf_machine_runtime_setup()&#45;&gt;_dl_runtime_profile()</title>
<path fill="none" stroke="#000000" d="M366.1507,-154.9902C359.4021,-143.7875 350.6021,-129.1795 343.0549,-116.6512"/>
<polygon fill="#000000" stroke="#000000" points="345.9863,-114.7344 337.8281,-107.9746 339.9902,-118.3465 345.9863,-114.7344"/>
</g>
<!-- _dl_runtime_resolve() -->
<g id="node10" class="node">
<title>_dl_runtime_resolve()</title>
<ellipse fill="#d3d3d3" stroke="#000000" cx="522" cy="-90" rx="89.8845" ry="18"/>
<text text-anchor="middle" x="522" y="-86.3" font-family="Times,serif" font-size="14.00" fill="#000000">_dl_runtime_resolve()</text>
</g>
<!-- elf_machine_runtime_setup()&#45;&gt;_dl_runtime_resolve() -->
<g id="edge10" class="edge">
<title>elf_machine_runtime_setup()&#45;&gt;_dl_runtime_resolve()</title>
<path fill="none" stroke="#000000" d="M407.3968,-155.6005C429.4878,-142.9552 459.56,-125.7415 483.3567,-112.12"/>
<polygon fill="#000000" stroke="#000000" points="485.2,-115.0978 492.14,-107.0923 481.7224,-109.0226 485.2,-115.0978"/>
</g>
<!-- bndmov/bnd jms -->
<g id="node14" class="node">
<title>bndmov/bnd jms</title>
<ellipse fill="#d3d3d3" stroke="#000000" cx="327" cy="-18" rx="71.4873" ry="18"/>
<text text-anchor="middle" x="327" y="-14.3" font-family="Times,serif" font-size="14.00" fill="#000000">bndmov/bnd jms</text>
</g>
<!-- _dl_runtime_profile()&#45;&gt;bndmov/bnd jms -->
<g id="edge11" class="edge">
<title>_dl_runtime_profile()&#45;&gt;bndmov/bnd jms</title>
<path fill="none" stroke="#000000" d="M327,-71.8314C327,-64.131 327,-54.9743 327,-46.4166"/>
<polygon fill="#000000" stroke="#000000" points="330.5001,-46.4132 327,-36.4133 323.5001,-46.4133 330.5001,-46.4132"/>
</g>
<!-- bndmov/bnd jmp -->
<g id="node15" class="node">
<title>bndmov/bnd jmp</title>
<ellipse fill="#d3d3d3" stroke="#000000" cx="522" cy="-18" rx="72.2875" ry="18"/>
<text text-anchor="middle" x="522" y="-14.3" font-family="Times,serif" font-size="14.00" fill="#000000">bndmov/bnd jmp</text>
</g>
<!-- _dl_runtime_resolve()&#45;&gt;bndmov/bnd jmp -->
<g id="edge12" class="edge">
<title>_dl_runtime_resolve()&#45;&gt;bndmov/bnd jmp</title>
<path fill="none" stroke="#000000" d="M522,-71.8314C522,-64.131 522,-54.9743 522,-46.4166"/>
<polygon fill="#000000" stroke="#000000" points="525.5001,-46.4132 522,-36.4133 518.5001,-46.4133 525.5001,-46.4132"/>
</g>
<!-- _dl_map_object_from_fd() -->
<g id="node12" class="node">
<title>_dl_map_object_from_fd()</title>
<ellipse fill="#d3d3d3" stroke="#000000" cx="123" cy="-256" rx="107.4815" ry="18"/>
<text text-anchor="middle" x="123" y="-252.3" font-family="Times,serif" font-size="14.00" fill="#000000">_dl_map_object_from_fd()</text>
</g>
<!-- _dl_map_object()&#45;&gt;_dl_map_object_from_fd() -->
<g id="edge13" class="edge">
<title>_dl_map_object()&#45;&gt;_dl_map_object_from_fd()</title>
<path fill="none" stroke="#000000" d="M136.3113,-320.9902C134.1209,-310.2963 131.2951,-296.4994 128.8108,-284.3706"/>
<polygon fill="#000000" stroke="#000000" points="132.1757,-283.3555 126.7403,-274.2612 125.318,-284.7602 132.1757,-283.3555"/>
</g>
<!-- _dl_map_segments() -->
<g id="node13" class="node">
<title>_dl_map_segments()</title>
<ellipse fill="#d3d3d3" stroke="#000000" cx="123" cy="-173" rx="85.2851" ry="18"/>
<text text-anchor="middle" x="123" y="-169.3" font-family="Times,serif" font-size="14.00" fill="#000000">_dl_map_segments()</text>
</g>
<!-- _dl_map_object_from_fd()&#45;&gt;_dl_map_segments() -->
<g id="edge14" class="edge">
<title>_dl_map_object_from_fd()&#45;&gt;_dl_map_segments()</title>
<path fill="none" stroke="#000000" d="M123,-237.9902C123,-227.2963 123,-213.4994 123,-201.3706"/>
<polygon fill="#000000" stroke="#000000" points="126.5001,-201.2612 123,-191.2612 119.5001,-201.2613 126.5001,-201.2612"/>
</g>
<!-- __mmap() -->
<g id="node16" class="node">
<title>__mmap()</title>
<ellipse fill="#d3d3d3" stroke="#000000" cx="123" cy="-90" rx="48.1917" ry="18"/>
<text text-anchor="middle" x="123" y="-86.3" font-family="Times,serif" font-size="14.00" fill="#000000">__mmap()</text>
</g>
<!-- _dl_map_segments()&#45;&gt;__mmap() -->
<g id="edge15" class="edge">
<title>_dl_map_segments()&#45;&gt;__mmap()</title>
<path fill="none" stroke="#000000" d="M123,-154.9902C123,-144.2963 123,-130.4994 123,-118.3706"/>
<polygon fill="#000000" stroke="#000000" points="126.5001,-118.2612 123,-108.2612 119.5001,-118.2613 126.5001,-118.2612"/>
</g>
</g>
</svg>
