<?xml version="1.0" encoding="UTF-8" standalone="no"?>
<!DOCTYPE svg PUBLIC "-//W3C//DTD SVG 1.1//EN"
 "http://www.w3.org/Graphics/SVG/1.1/DTD/svg11.dtd">
<!-- Generated by graphviz version 2.40.1 (20161225.0304)
 -->
<!-- Title: kernel Pages: 1 -->
<svg width="1119pt" height="726pt"
 viewBox="0.00 0.00 1119.49 726.00" xmlns="http://www.w3.org/2000/svg" xmlns:xlink="http://www.w3.org/1999/xlink">
<g id="graph0" class="graph" transform="scale(1 1) rotate(0) translate(4 722)">
<title>kernel</title>
<polygon fill="#ffffff" stroke="transparent" points="-4,4 -4,-722 1115.4879,-722 1115.4879,4 -4,4"/>
<!-- tinyfs_inode_ops -->
<g id="node1" class="node">
<title>tinyfs_inode_ops</title>
<ellipse fill="#00ff00" stroke="#000000" cx="579.7434" cy="-352" rx="71.4873" ry="18"/>
<text text-anchor="middle" x="579.7434" y="-348.3" font-family="Times,serif" font-size="14.00" fill="#000000">tinyfs_inode_ops</text>
</g>
<!-- tinyfs_create() -->
<g id="node10" class="node">
<title>tinyfs_create()</title>
<ellipse fill="#d3d3d3" stroke="#000000" cx="1049.7434" cy="-265" rx="61.99" ry="18"/>
<text text-anchor="middle" x="1049.7434" y="-261.3" font-family="Times,serif" font-size="14.00" fill="#000000">tinyfs_create()</text>
</g>
<!-- tinyfs_inode_ops&#45;&gt;tinyfs_create() -->
<g id="edge8" class="edge">
<title>tinyfs_inode_ops&#45;&gt;tinyfs_create()</title>
<path fill="none" stroke="#00ff00" d="M650.2874,-349.059C717.26,-345.1427 820.3914,-336.1824 907.7434,-316 941.4182,-308.2195 978.1018,-294.9115 1005.7473,-283.8406"/>
<polygon fill="#00ff00" stroke="#00ff00" points="1007.1809,-287.0361 1015.1291,-280.0307 1004.5471,-280.5505 1007.1809,-287.0361"/>
<text text-anchor="middle" x="977.2434" y="-304.8" font-family="Times,serif" font-size="14.00" fill="#000000">.create</text>
</g>
<!-- tinyfs_lookup() -->
<g id="node11" class="node">
<title>tinyfs_lookup()</title>
<ellipse fill="#d3d3d3" stroke="#000000" cx="251.7434" cy="-265" rx="65.7887" ry="18"/>
<text text-anchor="middle" x="251.7434" y="-261.3" font-family="Times,serif" font-size="14.00" fill="#000000">tinyfs_lookup()</text>
</g>
<!-- tinyfs_inode_ops&#45;&gt;tinyfs_lookup() -->
<g id="edge9" class="edge">
<title>tinyfs_inode_ops&#45;&gt;tinyfs_lookup()</title>
<path fill="none" stroke="#00ff00" d="M509.2459,-348.5804C437.9662,-344.1408 333.3866,-334.644 297.7434,-316 286.6297,-310.1867 276.8828,-300.5404 269.2559,-291.1923"/>
<polygon fill="#00ff00" stroke="#00ff00" points="271.9701,-288.9797 263.1181,-283.158 266.4075,-293.2293 271.9701,-288.9797"/>
<text text-anchor="middle" x="318.7434" y="-304.8" font-family="Times,serif" font-size="14.00" fill="#000000">.lookup</text>
</g>
<!-- tinyfs_mkdir() -->
<g id="node12" class="node">
<title>tinyfs_mkdir()</title>
<ellipse fill="#d3d3d3" stroke="#000000" cx="795.7434" cy="-265" rx="62.2891" ry="18"/>
<text text-anchor="middle" x="795.7434" y="-261.3" font-family="Times,serif" font-size="14.00" fill="#000000">tinyfs_mkdir()</text>
</g>
<!-- tinyfs_inode_ops&#45;&gt;tinyfs_mkdir() -->
<g id="edge10" class="edge">
<title>tinyfs_inode_ops&#45;&gt;tinyfs_mkdir()</title>
<path fill="none" stroke="#00ff00" d="M617.8626,-336.6464C654.5955,-321.8512 710.2291,-299.4432 749.4809,-283.6335"/>
<polygon fill="#00ff00" stroke="#00ff00" points="751.1175,-286.7476 759.0857,-279.7649 748.5022,-280.2545 751.1175,-286.7476"/>
<text text-anchor="middle" x="718.2434" y="-304.8" font-family="Times,serif" font-size="14.00" fill="#000000">.mkdir</text>
</g>
<!-- tinyfs_rmdir() -->
<g id="node13" class="node">
<title>tinyfs_rmdir()</title>
<ellipse fill="#d3d3d3" stroke="#000000" cx="508.7434" cy="-265" rx="61.1893" ry="18"/>
<text text-anchor="middle" x="508.7434" y="-261.3" font-family="Times,serif" font-size="14.00" fill="#000000">tinyfs_rmdir()</text>
</g>
<!-- tinyfs_inode_ops&#45;&gt;tinyfs_rmdir() -->
<g id="edge11" class="edge">
<title>tinyfs_inode_ops&#45;&gt;tinyfs_rmdir()</title>
<path fill="none" stroke="#00ff00" d="M565.0321,-333.9735C554.778,-321.4087 540.951,-304.4657 529.5675,-290.5168"/>
<polygon fill="#00ff00" stroke="#00ff00" points="532.2272,-288.2403 523.1928,-282.7057 526.8039,-292.6662 532.2272,-288.2403"/>
<text text-anchor="middle" x="566.2434" y="-304.8" font-family="Times,serif" font-size="14.00" fill="#000000">.rmdir</text>
</g>
<!-- tinyfs_unlink() -->
<g id="node14" class="node">
<title>tinyfs_unlink()</title>
<ellipse fill="#d3d3d3" stroke="#000000" cx="651.7434" cy="-265" rx="63.8893" ry="18"/>
<text text-anchor="middle" x="651.7434" y="-261.3" font-family="Times,serif" font-size="14.00" fill="#000000">tinyfs_unlink()</text>
</g>
<!-- tinyfs_inode_ops&#45;&gt;tinyfs_unlink() -->
<g id="edge12" class="edge">
<title>tinyfs_inode_ops&#45;&gt;tinyfs_unlink()</title>
<path fill="none" stroke="#00ff00" d="M594.6618,-333.9735C605.0603,-321.4087 619.0821,-304.4657 630.626,-290.5168"/>
<polygon fill="#00ff00" stroke="#00ff00" points="633.4111,-292.6412 637.0904,-282.7057 628.0183,-288.1782 633.4111,-292.6412"/>
<text text-anchor="middle" x="639.2434" y="-304.8" font-family="Times,serif" font-size="14.00" fill="#000000">.unlink</text>
</g>
<!-- tinyfs_dir_operations -->
<g id="node2" class="node">
<title>tinyfs_dir_operations</title>
<ellipse fill="#ffa500" stroke="#000000" cx="353.7434" cy="-105" rx="85.5853" ry="18"/>
<text text-anchor="middle" x="353.7434" y="-101.3" font-family="Times,serif" font-size="14.00" fill="#000000">tinyfs_dir_operations</text>
</g>
<!-- ?tinyfs_readdir() -->
<g id="node15" class="node">
<title>?tinyfs_readdir()</title>
<ellipse fill="#d3d3d3" stroke="#000000" cx="353.7434" cy="-18" rx="69.5877" ry="18"/>
<text text-anchor="middle" x="353.7434" y="-14.3" font-family="Times,serif" font-size="14.00" fill="#000000">?tinyfs_readdir()</text>
</g>
<!-- tinyfs_dir_operations&#45;&gt;?tinyfs_readdir() -->
<g id="edge13" class="edge">
<title>tinyfs_dir_operations&#45;&gt;?tinyfs_readdir()</title>
<path fill="none" stroke="#ffa500" d="M353.7434,-86.9735C353.7434,-75.1918 353.7434,-59.5607 353.7434,-46.1581"/>
<polygon fill="#ffa500" stroke="#ffa500" points="357.2435,-46.0033 353.7434,-36.0034 350.2435,-46.0034 357.2435,-46.0033"/>
<text text-anchor="middle" x="367.7434" y="-57.8" font-family="Times,serif" font-size="14.00" fill="#000000">.read</text>
</g>
<!-- tinyfs_file_operations -->
<g id="node3" class="node">
<title>tinyfs_file_operations</title>
<ellipse fill="#ffa500" stroke="#000000" cx="648.7434" cy="-105" rx="87.9851" ry="18"/>
<text text-anchor="middle" x="648.7434" y="-101.3" font-family="Times,serif" font-size="14.00" fill="#000000">tinyfs_file_operations</text>
</g>
<!-- tinyfs_read() -->
<g id="node18" class="node">
<title>tinyfs_read()</title>
<ellipse fill="#d3d3d3" stroke="#000000" cx="714.7434" cy="-18" rx="55.7903" ry="18"/>
<text text-anchor="middle" x="714.7434" y="-14.3" font-family="Times,serif" font-size="14.00" fill="#000000">tinyfs_read()</text>
</g>
<!-- tinyfs_file_operations&#45;&gt;tinyfs_read() -->
<g id="edge23" class="edge">
<title>tinyfs_file_operations&#45;&gt;tinyfs_read()</title>
<path fill="none" stroke="#ffa500" d="M662.4186,-86.9735C671.8615,-74.5261 684.5639,-57.782 695.0885,-43.9087"/>
<polygon fill="#ffa500" stroke="#ffa500" points="698.056,-45.788 701.3115,-35.7057 692.4791,-41.5573 698.056,-45.788"/>
<text text-anchor="middle" x="698.7434" y="-57.8" font-family="Times,serif" font-size="14.00" fill="#000000">.read</text>
</g>
<!-- tinyfs_write() -->
<g id="node19" class="node">
<title>tinyfs_write()</title>
<ellipse fill="#d3d3d3" stroke="#000000" cx="581.7434" cy="-18" rx="59.2899" ry="18"/>
<text text-anchor="middle" x="581.7434" y="-14.3" font-family="Times,serif" font-size="14.00" fill="#000000">tinyfs_write()</text>
</g>
<!-- tinyfs_file_operations&#45;&gt;tinyfs_write() -->
<g id="edge24" class="edge">
<title>tinyfs_file_operations&#45;&gt;tinyfs_write()</title>
<path fill="none" stroke="#ffa500" d="M634.8609,-86.9735C625.275,-74.5261 612.3801,-57.782 601.6961,-43.9087"/>
<polygon fill="#ffa500" stroke="#ffa500" points="604.2533,-41.493 595.3788,-35.7057 598.7073,-45.7641 604.2533,-41.493"/>
<text text-anchor="middle" x="634.7434" y="-57.8" font-family="Times,serif" font-size="14.00" fill="#000000">.write</text>
</g>
<!-- tinyfs_init() -->
<g id="node4" class="node">
<title>tinyfs_init()</title>
<ellipse fill="#d3d3d3" stroke="#000000" cx="186.7434" cy="-700" rx="52.7911" ry="18"/>
<text text-anchor="middle" x="186.7434" y="-696.3" font-family="Times,serif" font-size="14.00" fill="#000000">tinyfs_init()</text>
</g>
<!-- tinyfs_fs_type -->
<g id="node5" class="node">
<title>tinyfs_fs_type</title>
<ellipse fill="#d3d3d3" stroke="#000000" cx="186.7434" cy="-613" rx="61.1893" ry="18"/>
<text text-anchor="middle" x="186.7434" y="-609.3" font-family="Times,serif" font-size="14.00" fill="#000000">tinyfs_fs_type</text>
</g>
<!-- tinyfs_init()&#45;&gt;tinyfs_fs_type -->
<g id="edge1" class="edge">
<title>tinyfs_init()&#45;&gt;tinyfs_fs_type</title>
<path fill="none" stroke="#000000" d="M186.7434,-681.9735C186.7434,-670.1918 186.7434,-654.5607 186.7434,-641.1581"/>
<polygon fill="#000000" stroke="#000000" points="190.2435,-641.0033 186.7434,-631.0034 183.2435,-641.0034 190.2435,-641.0033"/>
<text text-anchor="middle" x="243.2434" y="-652.8" font-family="Times,serif" font-size="14.00" fill="#000000">register_filesystem()</text>
</g>
<!-- tinyfs -->
<g id="node6" class="node">
<title>tinyfs</title>
<ellipse fill="#d3d3d3" stroke="#000000" cx="186.7434" cy="-526" rx="30.5947" ry="18"/>
<text text-anchor="middle" x="186.7434" y="-522.3" font-family="Times,serif" font-size="14.00" fill="#000000">tinyfs</text>
</g>
<!-- tinyfs_fs_type&#45;&gt;tinyfs -->
<g id="edge2" class="edge">
<title>tinyfs_fs_type&#45;&gt;tinyfs</title>
<path fill="none" stroke="#000000" d="M186.7434,-594.9735C186.7434,-583.1918 186.7434,-567.5607 186.7434,-554.1581"/>
<polygon fill="#000000" stroke="#000000" points="190.2435,-554.0033 186.7434,-544.0034 183.2435,-554.0034 190.2435,-554.0033"/>
<text text-anchor="middle" x="203.7434" y="-565.8" font-family="Times,serif" font-size="14.00" fill="#000000">.name</text>
</g>
<!-- tinyfs_mount() -->
<g id="node7" class="node">
<title>tinyfs_mount()</title>
<ellipse fill="#d3d3d3" stroke="#000000" cx="74.7434" cy="-526" rx="63.8893" ry="18"/>
<text text-anchor="middle" x="74.7434" y="-522.3" font-family="Times,serif" font-size="14.00" fill="#000000">tinyfs_mount()</text>
</g>
<!-- tinyfs_fs_type&#45;&gt;tinyfs_mount() -->
<g id="edge3" class="edge">
<title>tinyfs_fs_type&#45;&gt;tinyfs_mount()</title>
<path fill="none" stroke="#000000" d="M164.8828,-596.019C147.692,-582.6655 123.5605,-563.9205 104.5916,-549.1857"/>
<polygon fill="#000000" stroke="#000000" points="106.5933,-546.3087 96.5488,-542.9382 102.2991,-551.8368 106.5933,-546.3087"/>
<text text-anchor="middle" x="157.7434" y="-565.8" font-family="Times,serif" font-size="14.00" fill="#000000">.mount</text>
</g>
<!-- tinyfs_kill_superblock() -->
<g id="node8" class="node">
<title>tinyfs_kill_superblock()</title>
<ellipse fill="#d3d3d3" stroke="#000000" cx="330.7434" cy="-526" rx="95.5831" ry="18"/>
<text text-anchor="middle" x="330.7434" y="-522.3" font-family="Times,serif" font-size="14.00" fill="#000000">tinyfs_kill_superblock()</text>
</g>
<!-- tinyfs_fs_type&#45;&gt;tinyfs_kill_superblock() -->
<g id="edge4" class="edge">
<title>tinyfs_fs_type&#45;&gt;tinyfs_kill_superblock()</title>
<path fill="none" stroke="#000000" d="M213.8287,-596.636C236.1773,-583.1337 268.1385,-563.8238 292.997,-548.8051"/>
<polygon fill="#000000" stroke="#000000" points="295.0538,-551.6517 301.8031,-543.4848 291.434,-545.6603 295.0538,-551.6517"/>
<text text-anchor="middle" x="288.2434" y="-565.8" font-family="Times,serif" font-size="14.00" fill="#000000">.kill_sb</text>
</g>
<!-- tinyfs_fill_super() -->
<g id="node9" class="node">
<title>tinyfs_fill_super()</title>
<ellipse fill="#d3d3d3" stroke="#000000" cx="74.7434" cy="-439" rx="74.9875" ry="18"/>
<text text-anchor="middle" x="74.7434" y="-435.3" font-family="Times,serif" font-size="14.00" fill="#000000">tinyfs_fill_super()</text>
</g>
<!-- tinyfs_mount()&#45;&gt;tinyfs_fill_super() -->
<g id="edge5" class="edge">
<title>tinyfs_mount()&#45;&gt;tinyfs_fill_super()</title>
<path fill="none" stroke="#000000" d="M74.7434,-507.9735C74.7434,-496.1918 74.7434,-480.5607 74.7434,-467.1581"/>
<polygon fill="#000000" stroke="#000000" points="78.2435,-467.0033 74.7434,-457.0034 71.2435,-467.0034 78.2435,-467.0033"/>
<text text-anchor="middle" x="117.2434" y="-478.8" font-family="Times,serif" font-size="14.00" fill="#000000">mount_nodev()</text>
</g>
<!-- tinyfs_fill_super()&#45;&gt;tinyfs_inode_ops -->
<g id="edge6" class="edge">
<title>tinyfs_fill_super()&#45;&gt;tinyfs_inode_ops</title>
<path fill="none" stroke="#000000" d="M135.6582,-428.5058C230.1327,-412.23 411.4136,-380.9994 510.6437,-363.9043"/>
<polygon fill="#000000" stroke="#000000" points="511.3096,-367.3412 520.5702,-362.1942 510.1211,-360.4428 511.3096,-367.3412"/>
<text text-anchor="middle" x="409.7434" y="-391.8" font-family="Times,serif" font-size="14.00" fill="#000000">root_inode&#45;&gt;i_op=</text>
</g>
<!-- tinyfs_fill_super()&#45;&gt;tinyfs_dir_operations -->
<g id="edge7" class="edge">
<title>tinyfs_fill_super()&#45;&gt;tinyfs_dir_operations</title>
<path fill="none" stroke="#000000" d="M69.4156,-420.8479C64.7612,-403.3704 58.7434,-376.1112 58.7434,-352 58.7434,-352 58.7434,-352 58.7434,-192 58.7434,-148.4703 178.4048,-125.0981 265.3047,-113.8641"/>
<polygon fill="#000000" stroke="#000000" points="265.9783,-117.3071 275.4633,-112.5863 265.1046,-110.3618 265.9783,-117.3071"/>
<text text-anchor="middle" x="113.2434" y="-261.3" font-family="Times,serif" font-size="14.00" fill="#000000">root_inode&#45;&gt;i_fop=</text>
</g>
<!-- tinyfs_do_create() -->
<g id="node16" class="node">
<title>tinyfs_do_create()</title>
<ellipse fill="#d3d3d3" stroke="#000000" cx="795.7434" cy="-192" rx="75.2868" ry="18"/>
<text text-anchor="middle" x="795.7434" y="-188.3" font-family="Times,serif" font-size="14.00" fill="#000000">tinyfs_do_create()</text>
</g>
<!-- tinyfs_create()&#45;&gt;tinyfs_do_create() -->
<g id="edge14" class="edge">
<title>tinyfs_create()&#45;&gt;tinyfs_do_create()</title>
<path fill="none" stroke="#000000" d="M1005.4999,-252.2844C963.5235,-240.2203 900.1828,-222.0161 854.0907,-208.7691"/>
<polygon fill="#000000" stroke="#000000" points="854.8162,-205.336 844.2384,-205.9376 852.8826,-212.0637 854.8162,-205.336"/>
</g>
<!-- tinyfs_iget() -->
<g id="node17" class="node">
<title>tinyfs_iget()</title>
<ellipse fill="#d3d3d3" stroke="#000000" cx="353.7434" cy="-192" rx="53.8905" ry="18"/>
<text text-anchor="middle" x="353.7434" y="-188.3" font-family="Times,serif" font-size="14.00" fill="#000000">tinyfs_iget()</text>
</g>
<!-- tinyfs_lookup()&#45;&gt;tinyfs_iget() -->
<g id="edge18" class="edge">
<title>tinyfs_lookup()&#45;&gt;tinyfs_iget()</title>
<path fill="none" stroke="#000000" d="M275.4006,-248.0688C289.3722,-238.0695 307.231,-225.2883 322.3681,-214.4549"/>
<polygon fill="#000000" stroke="#000000" points="324.8211,-217.0033 330.9161,-208.3372 320.7471,-211.3109 324.8211,-217.0033"/>
</g>
<!-- tinyfs_mkdir()&#45;&gt;tinyfs_do_create() -->
<g id="edge22" class="edge">
<title>tinyfs_mkdir()&#45;&gt;tinyfs_do_create()</title>
<path fill="none" stroke="#000000" d="M795.7434,-246.9551C795.7434,-238.8828 795.7434,-229.1764 795.7434,-220.1817"/>
<polygon fill="#000000" stroke="#000000" points="799.2435,-220.0903 795.7434,-210.0904 792.2435,-220.0904 799.2435,-220.0903"/>
</g>
<!-- tinyfs_do_create()&#45;&gt;tinyfs_inode_ops -->
<g id="edge15" class="edge">
<title>tinyfs_do_create()&#45;&gt;tinyfs_inode_ops</title>
<path fill="none" stroke="#000000" d="M828.3341,-208.3146C842.926,-217.5039 858.6437,-230.48 866.7434,-247 873.787,-261.3662 876.5194,-270.3339 866.7434,-283 841.3098,-315.9526 732.5785,-334.8691 656.5124,-344.2937"/>
<polygon fill="#000000" stroke="#000000" points="655.9829,-340.8321 646.4748,-345.5061 656.8224,-347.7816 655.9829,-340.8321"/>
<text text-anchor="middle" x="910.7434" y="-261.3" font-family="Times,serif" font-size="14.00" fill="#000000">inode&#45;&gt;i_op=</text>
</g>
<!-- tinyfs_do_create()&#45;&gt;tinyfs_dir_operations -->
<g id="edge16" class="edge">
<title>tinyfs_do_create()&#45;&gt;tinyfs_dir_operations</title>
<path fill="none" stroke="#000000" d="M737.849,-180.3265C709.016,-174.0211 673.7739,-165.5694 642.7434,-156 624.9969,-150.5272 621.7136,-145.6862 603.7434,-141 551.3542,-127.3381 491.3469,-118.4805 443.256,-112.9708"/>
<polygon fill="#000000" stroke="#000000" points="443.5086,-109.4773 433.1818,-111.8453 442.7314,-116.434 443.5086,-109.4773"/>
<text text-anchor="middle" x="682.7434" y="-144.8" font-family="Times,serif" font-size="14.00" fill="#000000">inode&#45;&gt;i_fop=</text>
</g>
<!-- tinyfs_do_create()&#45;&gt;tinyfs_file_operations -->
<g id="edge17" class="edge">
<title>tinyfs_do_create()&#45;&gt;tinyfs_file_operations</title>
<path fill="none" stroke="#000000" d="M774.4671,-174.5059C761.2105,-164.0616 743.5361,-150.9399 726.7434,-141 717.5035,-135.5307 707.2919,-130.2906 697.3859,-125.5832"/>
<polygon fill="#000000" stroke="#000000" points="698.5683,-122.2735 688.0237,-121.243 695.6242,-128.6243 698.5683,-122.2735"/>
<text text-anchor="middle" x="787.7434" y="-144.8" font-family="Times,serif" font-size="14.00" fill="#000000">inode&#45;&gt;i_fop=</text>
</g>
<!-- tinyfs_iget()&#45;&gt;tinyfs_inode_ops -->
<g id="edge19" class="edge">
<title>tinyfs_iget()&#45;&gt;tinyfs_inode_ops</title>
<path fill="none" stroke="#000000" d="M350.1482,-210.24C347.2967,-230.3376 346.1569,-262.5207 362.7434,-283 381.8434,-306.5828 456.0842,-326.6967 512.4563,-339.0203"/>
<polygon fill="#000000" stroke="#000000" points="511.8894,-342.4783 522.4012,-341.1549 513.3584,-335.6342 511.8894,-342.4783"/>
<text text-anchor="middle" x="400.7434" y="-261.3" font-family="Times,serif" font-size="14.00" fill="#000000">inode&#45;&gt;i_op=</text>
</g>
<!-- tinyfs_iget()&#45;&gt;tinyfs_dir_operations -->
<g id="edge20" class="edge">
<title>tinyfs_iget()&#45;&gt;tinyfs_dir_operations</title>
<path fill="none" stroke="#000000" d="M353.7434,-173.9735C353.7434,-162.1918 353.7434,-146.5607 353.7434,-133.1581"/>
<polygon fill="#000000" stroke="#000000" points="357.2435,-133.0033 353.7434,-123.0034 350.2435,-133.0034 357.2435,-133.0033"/>
<text text-anchor="middle" x="393.7434" y="-144.8" font-family="Times,serif" font-size="14.00" fill="#000000">inode&#45;&gt;i_fop=</text>
</g>
<!-- tinyfs_iget()&#45;&gt;tinyfs_file_operations -->
<g id="edge21" class="edge">
<title>tinyfs_iget()&#45;&gt;tinyfs_file_operations</title>
<path fill="none" stroke="#000000" d="M394.4521,-179.9944C444.8051,-165.1445 530.9449,-139.7406 588.8442,-122.6652"/>
<polygon fill="#000000" stroke="#000000" points="589.9954,-125.9748 598.5969,-119.789 588.0152,-119.2607 589.9954,-125.9748"/>
<text text-anchor="middle" x="559.7434" y="-144.8" font-family="Times,serif" font-size="14.00" fill="#000000">inode&#45;&gt;i_fop=</text>
</g>
</g>
</svg>
