<?xml version="1.0" encoding="UTF-8" standalone="no"?>
<!DOCTYPE svg PUBLIC "-//W3C//DTD SVG 1.1//EN"
 "http://www.w3.org/Graphics/SVG/1.1/DTD/svg11.dtd">
<!-- Generated by graphviz version 2.40.1 (20161225.0304)
 -->
<!-- Title: kernel Pages: 1 -->
<svg width="752pt" height="484pt"
 viewBox="0.00 0.00 752.00 484.00" xmlns="http://www.w3.org/2000/svg" xmlns:xlink="http://www.w3.org/1999/xlink">
<g id="graph0" class="graph" transform="scale(1 1) rotate(0) translate(4 480)">
<title>kernel</title>
<polygon fill="#ffffff" stroke="transparent" points="-4,4 -4,-480 748,-480 748,4 -4,4"/>
<g id="clust1" class="cluster">
<title>cluster_init_main_c</title>
<polygon fill="none" stroke="#000000" points="8,-174 8,-468 382,-468 382,-174 8,-174"/>
<text text-anchor="middle" x="195" y="-452.8" font-family="Times,serif" font-size="14.00" fill="#000000">init/main.c</text>
</g>
<g id="clust2" class="cluster">
<title>cluster_drivers_base_init_c</title>
<polygon fill="none" stroke="#000000" points="390,-174 390,-249 514,-249 514,-174 390,-174"/>
<text text-anchor="middle" x="452" y="-233.8" font-family="Times,serif" font-size="14.00" fill="#000000">drivers/base/init.c</text>
</g>
<g id="clust3" class="cluster">
<title>cluster_drivers_base_platform_c</title>
<polygon fill="none" stroke="#000000" points="364,-91 364,-166 540,-166 540,-91 364,-91"/>
<text text-anchor="middle" x="452" y="-150.8" font-family="Times,serif" font-size="14.00" fill="#000000">drivers/base/platform.c</text>
</g>
<g id="clust4" class="cluster">
<title>cluster_drivers_base_core_c</title>
<polygon fill="none" stroke="#000000" points="178,-8 178,-83 444,-83 444,-8 178,-8"/>
<text text-anchor="middle" x="311" y="-67.8" font-family="Times,serif" font-size="14.00" fill="#000000">drivers/base/core.c</text>
</g>
<g id="clust5" class="cluster">
<title>cluster_drivers_base_bus_c</title>
<polygon fill="none" stroke="#000000" points="452,-8 452,-83 736,-83 736,-8 452,-8"/>
<text text-anchor="middle" x="594" y="-67.8" font-family="Times,serif" font-size="14.00" fill="#000000">drivers/base/bus.c</text>
</g>
<!-- start_kernel() -->
<g id="node1" class="node">
<title>start_kernel()</title>
<ellipse fill="none" stroke="#000000" cx="100" cy="-419" rx="57.6901" ry="18"/>
<text text-anchor="middle" x="100" y="-415.3" font-family="Times,serif" font-size="14.00" fill="#000000">start_kernel()</text>
</g>
<!-- arch_call_rest_init() -->
<g id="node2" class="node">
<title>arch_call_rest_init()</title>
<ellipse fill="none" stroke="#000000" cx="100" cy="-347" rx="81.7856" ry="18"/>
<text text-anchor="middle" x="100" y="-343.3" font-family="Times,serif" font-size="14.00" fill="#000000">arch_call_rest_init()</text>
</g>
<!-- start_kernel()&#45;&gt;arch_call_rest_init() -->
<g id="edge1" class="edge">
<title>start_kernel()&#45;&gt;arch_call_rest_init()</title>
<path fill="none" stroke="#000000" d="M100,-400.8314C100,-393.131 100,-383.9743 100,-375.4166"/>
<polygon fill="#000000" stroke="#000000" points="103.5001,-375.4132 100,-365.4133 96.5001,-375.4133 103.5001,-375.4132"/>
</g>
<!-- rest_init() -->
<g id="node3" class="node">
<title>rest_init()</title>
<ellipse fill="none" stroke="#000000" cx="126" cy="-275" rx="45.4919" ry="18"/>
<text text-anchor="middle" x="126" y="-271.3" font-family="Times,serif" font-size="14.00" fill="#000000">rest_init()</text>
</g>
<!-- arch_call_rest_init()&#45;&gt;rest_init() -->
<g id="edge2" class="edge">
<title>arch_call_rest_init()&#45;&gt;rest_init()</title>
<path fill="none" stroke="#000000" d="M106.5609,-328.8314C109.4464,-320.8406 112.8982,-311.2819 116.087,-302.4514"/>
<polygon fill="#000000" stroke="#000000" points="119.4267,-303.5077 119.5313,-292.9134 112.8428,-301.1302 119.4267,-303.5077"/>
</g>
<!-- kernel_thread(kernel_init, NULL, CLONE_FS) -->
<g id="node4" class="node">
<title>kernel_thread(kernel_init, NULL, CLONE_FS)</title>
<ellipse fill="none" stroke="#000000" cx="195" cy="-200" rx="179.2682" ry="18"/>
<text text-anchor="middle" x="195" y="-196.3" font-family="Times,serif" font-size="14.00" fill="#000000">kernel_thread(kernel_init, NULL, CLONE_FS)</text>
</g>
<!-- rest_init()&#45;&gt;kernel_thread(kernel_init, NULL, CLONE_FS) -->
<g id="edge3" class="edge">
<title>rest_init()&#45;&gt;kernel_thread(kernel_init, NULL, CLONE_FS)</title>
<path fill="none" stroke="#000000" d="M141.6572,-257.9813C150.488,-248.3827 161.6947,-236.2014 171.5544,-225.4843"/>
<polygon fill="#000000" stroke="#000000" points="174.2478,-227.7262 178.4426,-217.9972 169.0962,-222.9868 174.2478,-227.7262"/>
</g>
<!-- kernel_init() -->
<g id="node5" class="node">
<title>kernel_init()</title>
<ellipse fill="none" stroke="#000000" cx="287" cy="-419" rx="54.6905" ry="18"/>
<text text-anchor="middle" x="287" y="-415.3" font-family="Times,serif" font-size="14.00" fill="#000000">kernel_init()</text>
</g>
<!-- kernel_init_freeable() -->
<g id="node6" class="node">
<title>kernel_init_freeable()</title>
<ellipse fill="none" stroke="#000000" cx="287" cy="-347" rx="87.1846" ry="18"/>
<text text-anchor="middle" x="287" y="-343.3" font-family="Times,serif" font-size="14.00" fill="#000000">kernel_init_freeable()</text>
</g>
<!-- kernel_init()&#45;&gt;kernel_init_freeable() -->
<g id="edge4" class="edge">
<title>kernel_init()&#45;&gt;kernel_init_freeable()</title>
<path fill="none" stroke="#000000" d="M287,-400.8314C287,-393.131 287,-383.9743 287,-375.4166"/>
<polygon fill="#000000" stroke="#000000" points="290.5001,-375.4132 287,-365.4133 283.5001,-375.4133 290.5001,-375.4132"/>
</g>
<!-- do_basic_setup() -->
<g id="node7" class="node">
<title>do_basic_setup()</title>
<ellipse fill="none" stroke="#000000" cx="295" cy="-275" rx="70.6878" ry="18"/>
<text text-anchor="middle" x="295" y="-271.3" font-family="Times,serif" font-size="14.00" fill="#000000">do_basic_setup()</text>
</g>
<!-- kernel_init_freeable()&#45;&gt;do_basic_setup() -->
<g id="edge5" class="edge">
<title>kernel_init_freeable()&#45;&gt;do_basic_setup()</title>
<path fill="none" stroke="#000000" d="M289.0187,-328.8314C289.8743,-321.131 290.8917,-311.9743 291.8426,-303.4166"/>
<polygon fill="#000000" stroke="#000000" points="295.3283,-303.7386 292.9541,-293.4133 288.3711,-302.9656 295.3283,-303.7386"/>
</g>
<!-- driver_init() -->
<g id="node8" class="node">
<title>driver_init()</title>
<ellipse fill="none" stroke="#000000" cx="452" cy="-200" rx="53.8905" ry="18"/>
<text text-anchor="middle" x="452" y="-196.3" font-family="Times,serif" font-size="14.00" fill="#000000">driver_init()</text>
</g>
<!-- do_basic_setup()&#45;&gt;driver_init() -->
<g id="edge6" class="edge">
<title>do_basic_setup()&#45;&gt;driver_init()</title>
<path fill="none" stroke="#000000" d="M348.6576,-263.1385C361.2383,-259.4199 374.3601,-254.7448 386,-249 399.799,-242.1896 413.6829,-232.4231 425.132,-223.399"/>
<polygon fill="#000000" stroke="#000000" points="427.4429,-226.0312 433.0024,-217.0122 423.032,-220.5958 427.4429,-226.0312"/>
</g>
<!-- platform_bus_init() -->
<g id="node9" class="node">
<title>platform_bus_init()</title>
<ellipse fill="none" stroke="#000000" cx="452" cy="-117" rx="79.8859" ry="18"/>
<text text-anchor="middle" x="452" y="-113.3" font-family="Times,serif" font-size="14.00" fill="#000000">platform_bus_init()</text>
</g>
<!-- driver_init()&#45;&gt;platform_bus_init() -->
<g id="edge7" class="edge">
<title>driver_init()&#45;&gt;platform_bus_init()</title>
<path fill="none" stroke="#000000" d="M452,-181.9902C452,-171.2963 452,-157.4994 452,-145.3706"/>
<polygon fill="#000000" stroke="#000000" points="455.5001,-145.2612 452,-135.2612 448.5001,-145.2613 455.5001,-145.2612"/>
</g>
<!-- device_register(&amp;platform_bus) -->
<g id="node10" class="node">
<title>device_register(&amp;platform_bus)</title>
<ellipse fill="none" stroke="#000000" cx="311" cy="-34" rx="124.5782" ry="18"/>
<text text-anchor="middle" x="311" y="-30.3" font-family="Times,serif" font-size="14.00" fill="#000000">device_register(&amp;platform_bus)</text>
</g>
<!-- platform_bus_init()&#45;&gt;device_register(&amp;platform_bus) -->
<g id="edge8" class="edge">
<title>platform_bus_init()&#45;&gt;device_register(&amp;platform_bus)</title>
<path fill="none" stroke="#000000" d="M423.1263,-100.0034C401.9303,-87.5264 372.9133,-70.4454 349.7085,-56.7859"/>
<polygon fill="#000000" stroke="#000000" points="351.2002,-53.6026 340.8069,-51.5459 347.6491,-59.635 351.2002,-53.6026"/>
</g>
<!-- bus_register(&amp;platform_bus_type) -->
<g id="node11" class="node">
<title>bus_register(&amp;platform_bus_type)</title>
<ellipse fill="none" stroke="#000000" cx="594" cy="-34" rx="133.7763" ry="18"/>
<text text-anchor="middle" x="594" y="-30.3" font-family="Times,serif" font-size="14.00" fill="#000000">bus_register(&amp;platform_bus_type)</text>
</g>
<!-- platform_bus_init()&#45;&gt;bus_register(&amp;platform_bus_type) -->
<g id="edge9" class="edge">
<title>platform_bus_init()&#45;&gt;bus_register(&amp;platform_bus_type)</title>
<path fill="none" stroke="#000000" d="M481.0785,-100.0034C502.5192,-87.4712 531.9064,-70.2942 555.3268,-56.6048"/>
<polygon fill="#000000" stroke="#000000" points="557.1146,-59.6139 563.9817,-51.5459 553.5821,-53.5705 557.1146,-59.6139"/>
</g>
</g>
</svg>
