<?xml version="1.0" encoding="UTF-8" standalone="no"?>
<!DOCTYPE svg PUBLIC "-//W3C//DTD SVG 1.1//EN"
 "http://www.w3.org/Graphics/SVG/1.1/DTD/svg11.dtd">
<!-- Generated by graphviz version 2.40.1 (20161225.0304)
 -->
<!-- Title: kernel Pages: 1 -->
<svg width="960pt" height="1324pt"
 viewBox="0.00 0.00 960.17 1324.00" xmlns="http://www.w3.org/2000/svg" xmlns:xlink="http://www.w3.org/1999/xlink">
<g id="graph0" class="graph" transform="scale(1 1) rotate(0) translate(4 1320)">
<title>kernel</title>
<polygon fill="#ffffff" stroke="transparent" points="-4,4 -4,-1320 956.1696,-1320 956.1696,4 -4,4"/>
<g id="clust1" class="cluster">
<title>cluster_arch_x86_entry_entry_64_s</title>
<polygon fill="none" stroke="#000000" points="46.0375,-1066 46.0375,-1308 420.0375,-1308 420.0375,-1066 46.0375,-1066"/>
<text text-anchor="middle" x="233.0375" y="-1292.8" font-family="Times,serif" font-size="14.00" fill="#000000">arch/x86/entry/entry_64.S</text>
</g>
<g id="clust2" class="cluster">
<title>cluster_arch_x86_kernel_apic_apic_c</title>
<polygon fill="none" stroke="#000000" points="428.0375,-972 428.0375,-1214 664.0375,-1214 664.0375,-972 428.0375,-972"/>
<text text-anchor="middle" x="546.0375" y="-1198.8" font-family="Times,serif" font-size="14.00" fill="#000000">arch/x86/kernel/apic/apic.c</text>
</g>
<g id="clust3" class="cluster">
<title>cluster_kernel_time_tick_common_c</title>
<polygon fill="none" stroke="#000000" points="447.0375,-697 447.0375,-939 645.0375,-939 645.0375,-697 447.0375,-697"/>
<text text-anchor="middle" x="546.0375" y="-923.8" font-family="Times,serif" font-size="14.00" fill="#000000">kernel/time/tick&#45;common.c</text>
</g>
<g id="clust4" class="cluster">
<title>cluster_kernel_time_timer_c</title>
<polygon fill="none" stroke="#000000" points="443.0375,-603 443.0375,-678 649.0375,-678 649.0375,-603 443.0375,-603"/>
<text text-anchor="middle" x="546.0375" y="-662.8" font-family="Times,serif" font-size="14.00" fill="#000000">kernel/time/timer.c</text>
</g>
<g id="clust5" class="cluster">
<title>cluster_kernel_rcu_tree_c</title>
<polygon fill="none" stroke="#000000" points="378.0375,-65 378.0375,-584 735.0375,-584 735.0375,-65 378.0375,-65"/>
<text text-anchor="middle" x="556.5375" y="-568.8" font-family="Times,serif" font-size="14.00" fill="#000000">kernel/rcu/tree.c</text>
</g>
<g id="clust6" class="cluster">
<title>cluster_arch_x86_kernel_traps_c</title>
<polygon fill="none" stroke="#000000" points="37.0375,-972 37.0375,-1047 245.0375,-1047 245.0375,-972 37.0375,-972"/>
<text text-anchor="middle" x="141.0375" y="-1031.8" font-family="Times,serif" font-size="14.00" fill="#000000">arch/x86/kernel/traps.c</text>
</g>
<g id="clust7" class="cluster">
<title>cluster_include_linux_rcupdate_h</title>
<polygon fill="none" stroke="#000000" points="28.0375,-864 28.0375,-939 254.0375,-939 254.0375,-864 28.0375,-864"/>
<text text-anchor="middle" x="141.0375" y="-923.8" font-family="Times,serif" font-size="14.00" fill="#000000">include/linux/rcupdate.h</text>
</g>
<g id="clust8" class="cluster">
<title>cluster_kernel_lock_locdep_c</title>
<polygon fill="none" stroke="#000000" points="32.0375,-770 32.0375,-845 250.0375,-845 250.0375,-770 32.0375,-770"/>
<text text-anchor="middle" x="141.0375" y="-829.8" font-family="Times,serif" font-size="14.00" fill="#000000">kernel/locking/lockdep.c</text>
</g>
<!-- apic_timer_interrupt -->
<g id="node1" class="node">
<title>apic_timer_interrupt</title>
<ellipse fill="#d3d3d3" stroke="#000000" cx="329.0375" cy="-1259" rx="83.3857" ry="18"/>
<text text-anchor="middle" x="329.0375" y="-1255.3" font-family="Times,serif" font-size="14.00" fill="#000000">apic_timer_interrupt</text>
</g>
<!-- smp_apic_timer_interrupt() -->
<g id="node4" class="node">
<title>smp_apic_timer_interrupt()</title>
<ellipse fill="#d3d3d3" stroke="#000000" cx="545.0375" cy="-1165" rx="108.5808" ry="18"/>
<text text-anchor="middle" x="545.0375" y="-1161.3" font-family="Times,serif" font-size="14.00" fill="#000000">smp_apic_timer_interrupt()</text>
</g>
<!-- apic_timer_interrupt&#45;&gt;smp_apic_timer_interrupt() -->
<g id="edge1" class="edge">
<title>apic_timer_interrupt&#45;&gt;smp_apic_timer_interrupt()</title>
<path fill="none" stroke="#000000" d="M366.1692,-1242.8408C402.3496,-1227.0956 457.5281,-1203.0828 497.0271,-1185.8934"/>
<polygon fill="#000000" stroke="#000000" points="498.434,-1189.0983 506.2067,-1181.8986 495.6407,-1182.6797 498.434,-1189.0983"/>
</g>
<!-- xen_failsafe_callback -->
<g id="node2" class="node">
<title>xen_failsafe_callback</title>
<ellipse fill="#d3d3d3" stroke="#000000" cx="141.0375" cy="-1259" rx="87.1846" ry="18"/>
<text text-anchor="middle" x="141.0375" y="-1255.3" font-family="Times,serif" font-size="14.00" fill="#000000">xen_failsafe_callback</text>
</g>
<!-- general_protection -->
<g id="node3" class="node">
<title>general_protection</title>
<ellipse fill="#d3d3d3" stroke="#000000" cx="141.0375" cy="-1092" rx="76.8869" ry="18"/>
<text text-anchor="middle" x="141.0375" y="-1088.3" font-family="Times,serif" font-size="14.00" fill="#000000">general_protection</text>
</g>
<!-- xen_failsafe_callback&#45;&gt;general_protection -->
<g id="edge14" class="edge">
<title>xen_failsafe_callback&#45;&gt;general_protection</title>
<path fill="none" stroke="#000000" d="M141.0375,-1240.8102C141.0375,-1211.8234 141.0375,-1154.9192 141.0375,-1120.4916"/>
<polygon fill="#000000" stroke="#000000" points="144.5376,-1120.1674 141.0375,-1110.1674 137.5376,-1120.1674 144.5376,-1120.1674"/>
</g>
<!-- do_general_protection() -->
<g id="node15" class="node">
<title>do_general_protection()</title>
<ellipse fill="#d3d3d3" stroke="#000000" cx="141.0375" cy="-998" rx="95.5831" ry="18"/>
<text text-anchor="middle" x="141.0375" y="-994.3" font-family="Times,serif" font-size="14.00" fill="#000000">do_general_protection()</text>
</g>
<!-- general_protection&#45;&gt;do_general_protection() -->
<g id="edge15" class="edge">
<title>general_protection&#45;&gt;do_general_protection()</title>
<path fill="none" stroke="#000000" d="M141.0375,-1073.8759C141.0375,-1060.3516 141.0375,-1041.6192 141.0375,-1026.1514"/>
<polygon fill="#000000" stroke="#000000" points="144.5376,-1026.0685 141.0375,-1016.0685 137.5376,-1026.0685 144.5376,-1026.0685"/>
</g>
<!-- local_apic_timer_interrupt() -->
<g id="node5" class="node">
<title>local_apic_timer_interrupt()</title>
<ellipse fill="#d3d3d3" stroke="#000000" cx="546.0375" cy="-998" rx="110.4804" ry="18"/>
<text text-anchor="middle" x="546.0375" y="-994.3" font-family="Times,serif" font-size="14.00" fill="#000000">local_apic_timer_interrupt()</text>
</g>
<!-- smp_apic_timer_interrupt()&#45;&gt;local_apic_timer_interrupt() -->
<g id="edge2" class="edge">
<title>smp_apic_timer_interrupt()&#45;&gt;local_apic_timer_interrupt()</title>
<path fill="none" stroke="#000000" d="M545.1464,-1146.8102C545.32,-1117.8234 545.6607,-1060.9192 545.8669,-1026.4916"/>
<polygon fill="#000000" stroke="#000000" points="549.3687,-1026.1882 545.9287,-1016.1674 542.3688,-1026.1462 549.3687,-1026.1882"/>
</g>
<!-- tick_handle_periodic() -->
<g id="node7" class="node">
<title>tick_handle_periodic()</title>
<ellipse fill="#d3d3d3" stroke="#000000" cx="546.0375" cy="-890" rx="90.9839" ry="18"/>
<text text-anchor="middle" x="546.0375" y="-886.3" font-family="Times,serif" font-size="14.00" fill="#000000">tick_handle_periodic()</text>
</g>
<!-- local_apic_timer_interrupt()&#45;&gt;tick_handle_periodic() -->
<g id="edge3" class="edge">
<title>local_apic_timer_interrupt()&#45;&gt;tick_handle_periodic()</title>
<path fill="none" stroke="#000000" d="M546.0375,-979.6793C546.0375,-962.821 546.0375,-937.5651 546.0375,-918.147"/>
<polygon fill="#000000" stroke="#000000" points="549.5376,-918.0501 546.0375,-908.0502 542.5376,-918.0502 549.5376,-918.0501"/>
<text text-anchor="middle" x="599.0375" y="-950.8" font-family="Times,serif" font-size="14.00" fill="#000000">evt&#45;&gt;event_handler</text>
</g>
<!-- tick_periodic() -->
<g id="node6" class="node">
<title>tick_periodic()</title>
<ellipse fill="#d3d3d3" stroke="#000000" cx="546.0375" cy="-723" rx="63.0888" ry="18"/>
<text text-anchor="middle" x="546.0375" y="-719.3" font-family="Times,serif" font-size="14.00" fill="#000000">tick_periodic()</text>
</g>
<!-- update_process_times() -->
<g id="node8" class="node">
<title>update_process_times()</title>
<ellipse fill="#d3d3d3" stroke="#000000" cx="546.0375" cy="-629" rx="94.7833" ry="18"/>
<text text-anchor="middle" x="546.0375" y="-625.3" font-family="Times,serif" font-size="14.00" fill="#000000">update_process_times()</text>
</g>
<!-- tick_periodic()&#45;&gt;update_process_times() -->
<g id="edge5" class="edge">
<title>tick_periodic()&#45;&gt;update_process_times()</title>
<path fill="none" stroke="#000000" d="M546.0375,-704.8759C546.0375,-691.3516 546.0375,-672.6192 546.0375,-657.1514"/>
<polygon fill="#000000" stroke="#000000" points="549.5376,-657.0685 546.0375,-647.0685 542.5376,-657.0685 549.5376,-657.0685"/>
</g>
<!-- tick_handle_periodic()&#45;&gt;tick_periodic() -->
<g id="edge4" class="edge">
<title>tick_handle_periodic()&#45;&gt;tick_periodic()</title>
<path fill="none" stroke="#000000" d="M546.0375,-871.8102C546.0375,-842.8234 546.0375,-785.9192 546.0375,-751.4916"/>
<polygon fill="#000000" stroke="#000000" points="549.5376,-751.1674 546.0375,-741.1674 542.5376,-751.1674 549.5376,-751.1674"/>
</g>
<!-- rcu_check_callbacks() -->
<g id="node9" class="node">
<title>rcu_check_callbacks()</title>
<ellipse fill="#d3d3d3" stroke="#000000" cx="546.0375" cy="-535" rx="89.8845" ry="18"/>
<text text-anchor="middle" x="546.0375" y="-531.3" font-family="Times,serif" font-size="14.00" fill="#000000">rcu_check_callbacks()</text>
</g>
<!-- update_process_times()&#45;&gt;rcu_check_callbacks() -->
<g id="edge6" class="edge">
<title>update_process_times()&#45;&gt;rcu_check_callbacks()</title>
<path fill="none" stroke="#000000" d="M546.0375,-610.8759C546.0375,-597.3516 546.0375,-578.6192 546.0375,-563.1514"/>
<polygon fill="#000000" stroke="#000000" points="549.5376,-563.0685 546.0375,-553.0685 542.5376,-563.0685 549.5376,-563.0685"/>
</g>
<!-- rcu_pending() -->
<g id="node10" class="node">
<title>rcu_pending()</title>
<ellipse fill="#d3d3d3" stroke="#000000" cx="546.0375" cy="-424" rx="60.3893" ry="18"/>
<text text-anchor="middle" x="546.0375" y="-420.3" font-family="Times,serif" font-size="14.00" fill="#000000">rcu_pending()</text>
</g>
<!-- rcu_check_callbacks()&#45;&gt;rcu_pending() -->
<g id="edge7" class="edge">
<title>rcu_check_callbacks()&#45;&gt;rcu_pending()</title>
<path fill="none" stroke="#000000" d="M546.0375,-516.6706C546.0375,-499.2373 546.0375,-472.7482 546.0375,-452.5489"/>
<polygon fill="#000000" stroke="#000000" points="549.5376,-452.3566 546.0375,-442.3566 542.5376,-452.3567 549.5376,-452.3566"/>
</g>
<!-- __rcu_pending() -->
<g id="node11" class="node">
<title>__rcu_pending()</title>
<ellipse fill="#d3d3d3" stroke="#000000" cx="546.0375" cy="-313" rx="69.5877" ry="18"/>
<text text-anchor="middle" x="546.0375" y="-309.3" font-family="Times,serif" font-size="14.00" fill="#000000">__rcu_pending()</text>
</g>
<!-- rcu_pending()&#45;&gt;__rcu_pending() -->
<g id="edge8" class="edge">
<title>rcu_pending()&#45;&gt;__rcu_pending()</title>
<path fill="none" stroke="#000000" d="M546.0375,-405.6706C546.0375,-388.2373 546.0375,-361.7482 546.0375,-341.5489"/>
<polygon fill="#000000" stroke="#000000" points="549.5376,-341.3566 546.0375,-331.3566 542.5376,-341.3567 549.5376,-341.3566"/>
</g>
<!-- check_cpu_stall() -->
<g id="node12" class="node">
<title>check_cpu_stall()</title>
<ellipse fill="#d3d3d3" stroke="#000000" cx="546.0375" cy="-202" rx="73.387" ry="18"/>
<text text-anchor="middle" x="546.0375" y="-198.3" font-family="Times,serif" font-size="14.00" fill="#000000">check_cpu_stall()</text>
</g>
<!-- __rcu_pending()&#45;&gt;check_cpu_stall() -->
<g id="edge9" class="edge">
<title>__rcu_pending()&#45;&gt;check_cpu_stall()</title>
<path fill="none" stroke="#000000" d="M546.0375,-294.6706C546.0375,-277.2373 546.0375,-250.7482 546.0375,-230.5489"/>
<polygon fill="#000000" stroke="#000000" points="549.5376,-230.3566 546.0375,-220.3566 542.5376,-230.3567 549.5376,-230.3566"/>
</g>
<!-- print_cpu_stall() -->
<g id="node13" class="node">
<title>print_cpu_stall()</title>
<ellipse fill="#d3d3d3" stroke="#000000" cx="456.0375" cy="-91" rx="69.5877" ry="18"/>
<text text-anchor="middle" x="456.0375" y="-87.3" font-family="Times,serif" font-size="14.00" fill="#000000">print_cpu_stall()</text>
</g>
<!-- check_cpu_stall()&#45;&gt;print_cpu_stall() -->
<g id="edge10" class="edge">
<title>check_cpu_stall()&#45;&gt;print_cpu_stall()</title>
<path fill="none" stroke="#000000" d="M531.5774,-184.1659C516.7506,-165.8795 493.5487,-137.2638 476.7695,-116.5695"/>
<polygon fill="#000000" stroke="#000000" points="479.4784,-114.3531 470.4617,-108.7898 474.0411,-118.7617 479.4784,-114.3531"/>
</g>
<!-- print_other_cpu_stall() -->
<g id="node14" class="node">
<title>print_other_cpu_stall()</title>
<ellipse fill="#d3d3d3" stroke="#000000" cx="635.0375" cy="-91" rx="91.784" ry="18"/>
<text text-anchor="middle" x="635.0375" y="-87.3" font-family="Times,serif" font-size="14.00" fill="#000000">print_other_cpu_stall()</text>
</g>
<!-- check_cpu_stall()&#45;&gt;print_other_cpu_stall() -->
<g id="edge11" class="edge">
<title>check_cpu_stall()&#45;&gt;print_other_cpu_stall()</title>
<path fill="none" stroke="#000000" d="M560.3369,-184.1659C574.9341,-165.9604 597.7402,-137.5169 614.3152,-116.8447"/>
<polygon fill="#000000" stroke="#000000" points="617.2487,-118.7811 620.7736,-108.7898 611.7874,-114.4022 617.2487,-118.7811"/>
</g>
<!-- &#39;INFO: %s self&#45;detected stall on CPU&#39;, rsp&#45;&gt;name -->
<g id="node18" class="node">
<title>&#39;INFO: %s self&#45;detected stall on CPU&#39;, rsp&#45;&gt;name</title>
<ellipse fill="#d3d3d3" stroke="#000000" cx="341.0375" cy="-18" rx="188.4666" ry="18"/>
<text text-anchor="middle" x="341.0375" y="-14.3" font-family="Times,serif" font-size="14.00" fill="#000000">&#39;INFO: %s self&#45;detected stall on CPU&#39;, rsp&#45;&gt;name</text>
</g>
<!-- print_cpu_stall()&#45;&gt;&#39;INFO: %s self&#45;detected stall on CPU&#39;, rsp&#45;&gt;name -->
<g id="edge12" class="edge">
<title>print_cpu_stall()&#45;&gt;&#39;INFO: %s self&#45;detected stall on CPU&#39;, rsp&#45;&gt;name</title>
<path fill="none" stroke="#000000" d="M429.6542,-74.2523C414.2946,-64.5023 394.6959,-52.0614 377.8371,-41.3597"/>
<polygon fill="#000000" stroke="#000000" points="379.6262,-38.3498 369.3077,-35.9455 375.8746,-44.2597 379.6262,-38.3498"/>
</g>
<!-- &#39;INFO: %s detected stalls on CPUs/tasks:&#39;, rsp&#45;&gt;name -->
<g id="node19" class="node">
<title>&#39;INFO: %s detected stalls on CPUs/tasks:&#39;, rsp&#45;&gt;name</title>
<ellipse fill="#d3d3d3" stroke="#000000" cx="750.0375" cy="-18" rx="202.2642" ry="18"/>
<text text-anchor="middle" x="750.0375" y="-14.3" font-family="Times,serif" font-size="14.00" fill="#000000">&#39;INFO: %s detected stalls on CPUs/tasks:&#39;, rsp&#45;&gt;name</text>
</g>
<!-- print_other_cpu_stall()&#45;&gt;&#39;INFO: %s detected stalls on CPUs/tasks:&#39;, rsp&#45;&gt;name -->
<g id="edge13" class="edge">
<title>print_other_cpu_stall()&#45;&gt;&#39;INFO: %s detected stalls on CPUs/tasks:&#39;, rsp&#45;&gt;name</title>
<path fill="none" stroke="#000000" d="M662.2909,-73.7C677.4222,-64.0949 696.4601,-52.01 712.9325,-41.5536"/>
<polygon fill="#000000" stroke="#000000" points="715.2118,-44.2524 721.7788,-35.9381 711.4603,-38.3425 715.2118,-44.2524"/>
</g>
<!-- RCU_LOCKDEP_WARN -->
<g id="node16" class="node">
<title>RCU_LOCKDEP_WARN</title>
<ellipse fill="#d3d3d3" stroke="#000000" cx="141.0375" cy="-890" rx="105.0817" ry="18"/>
<text text-anchor="middle" x="141.0375" y="-886.3" font-family="Times,serif" font-size="14.00" fill="#000000">RCU_LOCKDEP_WARN</text>
</g>
<!-- do_general_protection()&#45;&gt;RCU_LOCKDEP_WARN -->
<g id="edge16" class="edge">
<title>do_general_protection()&#45;&gt;RCU_LOCKDEP_WARN</title>
<path fill="none" stroke="#000000" d="M141.0375,-979.6793C141.0375,-962.821 141.0375,-937.5651 141.0375,-918.147"/>
<polygon fill="#000000" stroke="#000000" points="144.5376,-918.0501 141.0375,-908.0502 137.5376,-918.0502 144.5376,-918.0501"/>
<text text-anchor="middle" x="276.0375" y="-950.8" font-family="Times,serif" font-size="14.00" fill="#000000">!rcu_is_watching(), &#39;entry code didn&#39;t wake RCU&#39;</text>
</g>
<!-- lockdep_rcu_suspicious() -->
<g id="node17" class="node">
<title>lockdep_rcu_suspicious()</title>
<ellipse fill="#d3d3d3" stroke="#000000" cx="141.0375" cy="-796" rx="100.9827" ry="18"/>
<text text-anchor="middle" x="141.0375" y="-792.3" font-family="Times,serif" font-size="14.00" fill="#000000">lockdep_rcu_suspicious()</text>
</g>
<!-- RCU_LOCKDEP_WARN&#45;&gt;lockdep_rcu_suspicious() -->
<g id="edge17" class="edge">
<title>RCU_LOCKDEP_WARN&#45;&gt;lockdep_rcu_suspicious()</title>
<path fill="none" stroke="#000000" d="M141.0375,-871.8759C141.0375,-858.3516 141.0375,-839.6192 141.0375,-824.1514"/>
<polygon fill="#000000" stroke="#000000" points="144.5376,-824.0685 141.0375,-814.0685 137.5376,-824.0685 144.5376,-824.0685"/>
</g>
<!-- &#39;WARNING: suspicious RCU usage&#39; -->
<g id="node20" class="node">
<title>&#39;WARNING: suspicious RCU usage&#39;</title>
<ellipse fill="#d3d3d3" stroke="#000000" cx="141.0375" cy="-723" rx="141.075" ry="18"/>
<text text-anchor="middle" x="141.0375" y="-719.3" font-family="Times,serif" font-size="14.00" fill="#000000">&#39;WARNING: suspicious RCU usage&#39;</text>
</g>
<!-- lockdep_rcu_suspicious()&#45;&gt;&#39;WARNING: suspicious RCU usage&#39; -->
<g id="edge18" class="edge">
<title>lockdep_rcu_suspicious()&#45;&gt;&#39;WARNING: suspicious RCU usage&#39;</title>
<path fill="none" stroke="#000000" d="M141.0375,-777.9551C141.0375,-769.8828 141.0375,-760.1764 141.0375,-751.1817"/>
<polygon fill="#000000" stroke="#000000" points="144.5376,-751.0903 141.0375,-741.0904 137.5376,-751.0904 144.5376,-751.0903"/>
</g>
</g>
</svg>
