<?xml version="1.0" encoding="UTF-8" standalone="no"?>
<!DOCTYPE svg PUBLIC "-//W3C//DTD SVG 1.1//EN"
 "http://www.w3.org/Graphics/SVG/1.1/DTD/svg11.dtd">
<!-- Generated by graphviz version 2.38.0 (20140413.2041)
 -->
<!-- Title: evince Pages: 1 -->
<svg width="1594pt" height="773pt"
 viewBox="0.00 0.00 1594.50 773.00" xmlns="http://www.w3.org/2000/svg" xmlns:xlink="http://www.w3.org/1999/xlink">
<g id="graph0" class="graph" transform="scale(1 1) rotate(0) translate(4 769)">
<title>evince</title>
<polygon fill="white" stroke="none" points="-4,4 -4,-769 1590.5,-769 1590.5,4 -4,4"/>
<g id="clust1" class="cluster"><title>cluster_shell_ev_application_c</title>
<polygon fill="none" stroke="black" points="472.621,-564 472.621,-639 782.395,-639 782.395,-564 472.621,-564"/>
<text text-anchor="middle" x="627.508" y="-623.8" font-family="Times,serif" font-size="14.00">shell/ev&#45;application.c</text>
</g>
<g id="clust2" class="cluster"><title>cluster_shell_ev_window_c</title>
<polygon fill="none" stroke="black" points="8,-265 8,-556 794.744,-556 794.744,-265 8,-265"/>
<text text-anchor="middle" x="401.372" y="-540.8" font-family="Times,serif" font-size="14.00">shell/ev&#45;window.c</text>
</g>
<g id="clust3" class="cluster"><title>cluster_libview_ev_view_c</title>
<polygon fill="none" stroke="black" points="75.594,-647 75.594,-757 1289.72,-757 1289.72,-647 75.594,-647"/>
<text text-anchor="middle" x="682.657" y="-741.8" font-family="Times,serif" font-size="14.00">libview/ev&#45;view.c</text>
</g>
<g id="clust4" class="cluster"><title>cluster_libview_ev_recent_view_c</title>
<polygon fill="none" stroke="black" points="518.767,-100 518.767,-175 1318.97,-175 1318.97,-100 518.767,-100"/>
<text text-anchor="middle" x="918.868" y="-159.8" font-family="Times,serif" font-size="14.00">libview/ev&#45;recent&#45;view.c</text>
</g>
<g id="clust5" class="cluster"><title>cluster_libview_ev_pixbuf_cache_c</title>
<polygon fill="none" stroke="black" points="1041.04,-564 1041.04,-639 1320.92,-639 1320.92,-564 1041.04,-564"/>
<text text-anchor="middle" x="1180.98" y="-623.8" font-family="Times,serif" font-size="14.00">libview/ev&#45;pixbuf&#45;cache.c</text>
</g>
<!-- ev_application_open_uri_at_dest() -->
<g id="node1" class="node"><title>ev_application_open_uri_at_dest()</title>
<ellipse fill="lightgrey" stroke="black" cx="627.508" cy="-590" rx="146.774" ry="18"/>
<text text-anchor="middle" x="627.508" y="-586.3" font-family="Times,serif" font-size="14.00">ev_application_open_uri_at_dest()</text>
</g>
<!-- ev_window_init() -->
<g id="node2" class="node"><title>ev_window_init()</title>
<ellipse fill="lightgrey" stroke="black" cx="158.987" cy="-453" rx="81.4863" ry="18"/>
<text text-anchor="middle" x="158.987" y="-449.3" font-family="Times,serif" font-size="14.00">ev_window_init()</text>
</g>
<!-- g_signal_connect_object(&#39;notify::is&#45;loading&#39;) -->
<g id="node15" class="node"><title>g_signal_connect_object(&#39;notify::is&#45;loading&#39;)</title>
<ellipse fill="lightgrey" stroke="black" cx="627.508" cy="-239" rx="186.567" ry="18"/>
<text text-anchor="middle" x="627.508" y="-235.3" font-family="Times,serif" font-size="14.00">g_signal_connect_object(&#39;notify::is&#45;loading&#39;)</text>
</g>
<!-- ev_window_init()&#45;&gt;g_signal_connect_object(&#39;notify::is&#45;loading&#39;) -->
<g id="edge1" class="edge"><title>ev_window_init()&#45;&gt;g_signal_connect_object(&#39;notify::is&#45;loading&#39;)</title>
<path fill="none" stroke="black" d="M239.684,-450.719C261.575,-446.839 284.163,-439.471 301.975,-426 316.242,-415.209 308.629,-403.83 319.975,-390 356.738,-345.187 388.768,-356.794 422.975,-310 436.666,-291.27 422.766,-275.378 440.975,-261 445.085,-257.754 449.416,-254.83 453.922,-252.2"/>
<polygon fill="black" stroke="black" points="455.596,-255.274 462.792,-247.498 452.318,-249.089 455.596,-255.274"/>
</g>
<!-- ev_window_open_recent_view() -->
<g id="node3" class="node"><title>ev_window_open_recent_view()</title>
<ellipse fill="lightgrey" stroke="black" cx="158.987" cy="-291" rx="139.976" ry="18"/>
<text text-anchor="middle" x="158.987" y="-287.3" font-family="Times,serif" font-size="14.00">ev_window_open_recent_view()</text>
</g>
<!-- ev_recent_view_new() -->
<g id="node12" class="node"><title>ev_recent_view_new()</title>
<ellipse fill="lightgrey" stroke="black" cx="627.508" cy="-126" rx="100.983" ry="18"/>
<text text-anchor="middle" x="627.508" y="-122.3" font-family="Times,serif" font-size="14.00">ev_recent_view_new()</text>
</g>
<!-- ev_window_open_recent_view()&#45;&gt;ev_recent_view_new() -->
<g id="edge3" class="edge"><title>ev_window_open_recent_view()&#45;&gt;ev_recent_view_new()</title>
<path fill="none" stroke="black" d="M172.141,-273.035C195.933,-239.62 252.287,-168.703 319.975,-140 388.734,-110.842 474.115,-109.421 537.29,-114.103"/>
<polygon fill="black" stroke="black" points="537.379,-117.621 547.628,-114.937 537.942,-110.644 537.379,-117.621"/>
</g>
<!-- g_signal_connect_object(&#39;item&#45;activated&#39;) -->
<g id="node16" class="node"><title>g_signal_connect_object(&#39;item&#45;activated&#39;)</title>
<ellipse fill="lightgrey" stroke="black" cx="627.508" cy="-18" rx="174.669" ry="18"/>
<text text-anchor="middle" x="627.508" y="-14.3" font-family="Times,serif" font-size="14.00">g_signal_connect_object(&#39;item&#45;activated&#39;)</text>
</g>
<!-- ev_window_open_recent_view()&#45;&gt;g_signal_connect_object(&#39;item&#45;activated&#39;) -->
<g id="edge5" class="edge"><title>ev_window_open_recent_view()&#45;&gt;g_signal_connect_object(&#39;item&#45;activated&#39;)</title>
<path fill="none" stroke="black" d="M172.863,-272.93C198.096,-238.436 257.1,-162.178 319.975,-112 368.021,-73.6557 382.723,-64.6344 440.975,-45 456.301,-39.8342 472.667,-35.6565 489.092,-32.278"/>
<polygon fill="black" stroke="black" points="490.176,-35.6322 499.318,-30.276 488.831,-28.7626 490.176,-35.6322"/>
</g>
<!-- recent_view_item_activated_cb() -->
<g id="node4" class="node"><title>recent_view_item_activated_cb()</title>
<ellipse fill="lightgrey" stroke="black" cx="158.987" cy="-399" rx="142.975" ry="18"/>
<text text-anchor="middle" x="158.987" y="-395.3" font-family="Times,serif" font-size="14.00">recent_view_item_activated_cb()</text>
</g>
<!-- recent_view_item_activated_cb()&#45;&gt;ev_application_open_uri_at_dest() -->
<g id="edge7" class="edge"><title>recent_view_item_activated_cb()&#45;&gt;ev_application_open_uri_at_dest()</title>
<path fill="none" stroke="black" d="M277.913,-409.159C286.798,-413.445 295.001,-418.957 301.975,-426 333.749,-458.088 289.609,-492.575 319.975,-526 357.537,-567.346 386.426,-547.967 440.975,-560 466.291,-565.585 493.764,-570.592 519.617,-574.844"/>
<polygon fill="black" stroke="black" points="519.387,-578.352 529.818,-576.496 520.506,-571.442 519.387,-578.352"/>
</g>
<!-- view_is_loading_changed_cb() -->
<g id="node5" class="node"><title>view_is_loading_changed_cb()</title>
<ellipse fill="lightgrey" stroke="black" cx="158.987" cy="-507" rx="132.677" ry="18"/>
<text text-anchor="middle" x="158.987" y="-503.3" font-family="Times,serif" font-size="14.00">view_is_loading_changed_cb()</text>
</g>
<!-- ev_window_show_loading_message() -->
<g id="node6" class="node"><title>ev_window_show_loading_message()</title>
<ellipse fill="lightgrey" stroke="black" cx="627.508" cy="-443" rx="159.472" ry="18"/>
<text text-anchor="middle" x="627.508" y="-439.3" font-family="Times,serif" font-size="14.00">ev_window_show_loading_message()</text>
</g>
<!-- view_is_loading_changed_cb()&#45;&gt;ev_window_show_loading_message() -->
<g id="edge13" class="edge"><title>view_is_loading_changed_cb()&#45;&gt;ev_window_show_loading_message()</title>
<path fill="none" stroke="black" d="M252.994,-494.241C328.575,-483.872 435.405,-469.217 515.466,-458.233"/>
<polygon fill="black" stroke="black" points="516.155,-461.672 525.587,-456.845 515.204,-454.737 516.155,-461.672"/>
<text text-anchor="middle" x="371.475" y="-488.8" font-family="Times,serif" font-size="14.00">is_loading</text>
</g>
<!-- ev_window_hide_loading_message() -->
<g id="node7" class="node"><title>ev_window_hide_loading_message()</title>
<ellipse fill="lightgrey" stroke="black" cx="627.508" cy="-507" rx="155.972" ry="18"/>
<text text-anchor="middle" x="627.508" y="-503.3" font-family="Times,serif" font-size="14.00">ev_window_hide_loading_message()</text>
</g>
<!-- view_is_loading_changed_cb()&#45;&gt;ev_window_hide_loading_message() -->
<g id="edge17" class="edge"><title>view_is_loading_changed_cb()&#45;&gt;ev_window_hide_loading_message()</title>
<path fill="none" stroke="black" d="M291.803,-507C344.437,-507 405.629,-507 461.187,-507"/>
<polygon fill="black" stroke="black" points="461.492,-510.5 471.492,-507 461.492,-503.5 461.492,-510.5"/>
<text text-anchor="middle" x="371.475" y="-510.8" font-family="Times,serif" font-size="14.00">!is_loading</text>
</g>
<!-- g_timeout_add_full() -->
<g id="node18" class="node"><title>g_timeout_add_full()</title>
<ellipse fill="lightgrey" stroke="black" cx="1180.98" cy="-371" rx="92.8835" ry="18"/>
<text text-anchor="middle" x="1180.98" y="-367.3" font-family="Times,serif" font-size="14.00">g_timeout_add_full()</text>
</g>
<!-- ev_window_show_loading_message()&#45;&gt;g_timeout_add_full() -->
<g id="edge14" class="edge"><title>ev_window_show_loading_message()&#45;&gt;g_timeout_add_full()</title>
<path fill="none" stroke="black" d="M732.56,-429.415C836.867,-415.797 995.614,-395.071 1093.3,-382.317"/>
<polygon fill="black" stroke="black" points="1093.98,-385.758 1103.44,-380.993 1093.07,-378.817 1093.98,-385.758"/>
</g>
<!-- gtk_widget_hide() -->
<g id="node20" class="node"><title>gtk_widget_hide()</title>
<ellipse fill="lightgrey" stroke="black" cx="1180.98" cy="-507" rx="83.3857" ry="18"/>
<text text-anchor="middle" x="1180.98" y="-503.3" font-family="Times,serif" font-size="14.00">gtk_widget_hide()</text>
</g>
<!-- ev_window_hide_loading_message()&#45;&gt;gtk_widget_hide() -->
<g id="edge18" class="edge"><title>ev_window_hide_loading_message()&#45;&gt;gtk_widget_hide()</title>
<path fill="none" stroke="black" d="M783.591,-507C881.454,-507 1004.57,-507 1087.42,-507"/>
<polygon fill="black" stroke="black" points="1087.57,-510.5 1097.57,-507 1087.57,-503.5 1087.57,-510.5"/>
<text text-anchor="middle" x="931.542" y="-510.8" font-family="Times,serif" font-size="14.00">loading_message</text>
</g>
<!-- show_loading_message_cb() -->
<g id="node8" class="node"><title>show_loading_message_cb()</title>
<ellipse fill="lightgrey" stroke="black" cx="158.987" cy="-345" rx="122.678" ry="18"/>
<text text-anchor="middle" x="158.987" y="-341.3" font-family="Times,serif" font-size="14.00">show_loading_message_cb()</text>
</g>
<!-- gtk_widget_show() -->
<g id="node19" class="node"><title>gtk_widget_show()</title>
<ellipse fill="lightgrey" stroke="black" cx="627.508" cy="-72" rx="86.3847" ry="18"/>
<text text-anchor="middle" x="627.508" y="-68.3" font-family="Times,serif" font-size="14.00">gtk_widget_show()</text>
</g>
<!-- show_loading_message_cb()&#45;&gt;gtk_widget_show() -->
<g id="edge16" class="edge"><title>show_loading_message_cb()&#45;&gt;gtk_widget_show()</title>
<path fill="none" stroke="black" d="M272.619,-337.951C283.647,-333.275 293.768,-326.816 301.975,-318 348.927,-267.561 281.774,-221.353 319.975,-164 354.171,-112.658 382.424,-115.424 440.975,-96 470.056,-86.3526 502.898,-80.5563 532.78,-77.0829"/>
<polygon fill="black" stroke="black" points="533.229,-80.5548 542.791,-75.9918 532.471,-73.596 533.229,-80.5548"/>
<text text-anchor="middle" x="371.475" y="-167.8" font-family="Times,serif" font-size="14.00">loading_message</text>
</g>
<!-- ev_view_draw() -->
<g id="node9" class="node"><title>ev_view_draw()</title>
<ellipse fill="lightgrey" stroke="black" cx="158.987" cy="-673" rx="75.2868" ry="18"/>
<text text-anchor="middle" x="158.987" y="-669.3" font-family="Times,serif" font-size="14.00">ev_view_draw()</text>
</g>
<!-- draw_one_page() -->
<g id="node10" class="node"><title>draw_one_page()</title>
<ellipse fill="lightgrey" stroke="black" cx="627.508" cy="-673" rx="78.7863" ry="18"/>
<text text-anchor="middle" x="627.508" y="-669.3" font-family="Times,serif" font-size="14.00">draw_one_page()</text>
</g>
<!-- ev_view_draw()&#45;&gt;draw_one_page() -->
<g id="edge8" class="edge"><title>ev_view_draw()&#45;&gt;draw_one_page()</title>
<path fill="none" stroke="black" d="M234.425,-673C317.197,-673 450.782,-673 538.625,-673"/>
<polygon fill="black" stroke="black" points="538.838,-676.5 548.838,-673 538.838,-669.5 538.838,-676.5"/>
</g>
<!-- ev_view_set_loading() -->
<g id="node11" class="node"><title>ev_view_set_loading()</title>
<ellipse fill="lightgrey" stroke="black" cx="1180.98" cy="-690" rx="100.983" ry="18"/>
<text text-anchor="middle" x="1180.98" y="-686.3" font-family="Times,serif" font-size="14.00">ev_view_set_loading()</text>
</g>
<!-- draw_one_page()&#45;&gt;ev_view_set_loading() -->
<g id="edge10" class="edge"><title>draw_one_page()&#45;&gt;ev_view_set_loading()</title>
<path fill="none" stroke="black" d="M700.489,-679.992C739.397,-683.434 788.304,-687.221 832.042,-689 911.697,-692.241 1001.69,-692.406 1070.2,-691.805"/>
<polygon fill="black" stroke="black" points="1070.61,-695.302 1080.58,-691.707 1070.54,-688.302 1070.61,-695.302"/>
<text text-anchor="middle" x="931.542" y="-695.8" font-family="Times,serif" font-size="14.00">!page_surface, is_loading=TRUE</text>
</g>
<!-- draw_one_page()&#45;&gt;ev_view_set_loading() -->
<g id="edge11" class="edge"><title>draw_one_page()&#45;&gt;ev_view_set_loading()</title>
<path fill="none" stroke="black" d="M704.281,-669.092C785.268,-665.696 917.381,-662.403 1031.04,-670 1051.96,-671.398 1074.42,-673.889 1095.39,-676.649"/>
<polygon fill="black" stroke="black" points="1095.17,-680.151 1105.55,-678.021 1096.11,-673.214 1095.17,-680.151"/>
<text text-anchor="middle" x="931.542" y="-673.8" font-family="Times,serif" font-size="14.00">page_surface, is_loading=FALSE</text>
</g>
<!-- ev_pixbuf_cache_get_surface() -->
<g id="node14" class="node"><title>ev_pixbuf_cache_get_surface()</title>
<ellipse fill="lightgrey" stroke="black" cx="1180.98" cy="-590" rx="131.877" ry="18"/>
<text text-anchor="middle" x="1180.98" y="-586.3" font-family="Times,serif" font-size="14.00">ev_pixbuf_cache_get_surface()</text>
</g>
<!-- draw_one_page()&#45;&gt;ev_pixbuf_cache_get_surface() -->
<g id="edge9" class="edge"><title>draw_one_page()&#45;&gt;ev_pixbuf_cache_get_surface()</title>
<path fill="none" stroke="black" d="M693.662,-663.194C789.527,-648.766 969.313,-621.707 1081.39,-604.839"/>
<polygon fill="black" stroke="black" points="1081.98,-608.289 1091.35,-603.34 1080.94,-601.367 1081.98,-608.289"/>
</g>
<!-- g_object_notify(is&#45;loading) -->
<g id="node17" class="node"><title>g_object_notify(is&#45;loading)</title>
<ellipse fill="lightgrey" stroke="black" cx="1468.21" cy="-690" rx="118.079" ry="18"/>
<text text-anchor="middle" x="1468.21" y="-686.3" font-family="Times,serif" font-size="14.00">g_object_notify(is&#45;loading)</text>
</g>
<!-- ev_view_set_loading()&#45;&gt;g_object_notify(is&#45;loading) -->
<g id="edge12" class="edge"><title>ev_view_set_loading()&#45;&gt;g_object_notify(is&#45;loading)</title>
<path fill="none" stroke="black" d="M1281.74,-690C1300.48,-690 1320.31,-690 1339.76,-690"/>
<polygon fill="black" stroke="black" points="1339.89,-693.5 1349.89,-690 1339.89,-686.5 1339.89,-693.5"/>
</g>
<!-- ev_recent_view_constructed() -->
<g id="node13" class="node"><title>ev_recent_view_constructed()</title>
<ellipse fill="lightgrey" stroke="black" cx="1180.98" cy="-126" rx="129.977" ry="18"/>
<text text-anchor="middle" x="1180.98" y="-122.3" font-family="Times,serif" font-size="14.00">ev_recent_view_constructed()</text>
</g>
<!-- ev_recent_view_new()&#45;&gt;ev_recent_view_constructed() -->
<g id="edge4" class="edge"><title>ev_recent_view_new()&#45;&gt;ev_recent_view_constructed()</title>
<path fill="none" stroke="black" d="M728.375,-126C815.686,-126 943.374,-126 1040.72,-126"/>
<polygon fill="black" stroke="black" points="1040.94,-129.5 1050.94,-126 1040.94,-122.5 1040.94,-129.5"/>
</g>
<!-- g_signal_connect_object(&#39;notify::is&#45;loading&#39;)&#45;&gt;view_is_loading_changed_cb() -->
<g id="edge2" class="edge"><title>g_signal_connect_object(&#39;notify::is&#45;loading&#39;)&#45;&gt;view_is_loading_changed_cb()</title>
<path fill="none" stroke="black" d="M459.907,-247.033C453.113,-250.919 446.746,-255.537 440.975,-261 407.223,-292.945 444.835,-322.991 422.975,-364 414.213,-380.435 318.528,-471.464 301.975,-480 292.056,-485.115 281.299,-489.267 270.294,-492.637"/>
<polygon fill="black" stroke="black" points="269.234,-489.3 260.573,-495.402 271.149,-496.032 269.234,-489.3"/>
</g>
<!-- g_signal_connect_object(&#39;item&#45;activated&#39;)&#45;&gt;recent_view_item_activated_cb() -->
<g id="edge6" class="edge"><title>g_signal_connect_object(&#39;item&#45;activated&#39;)&#45;&gt;recent_view_item_activated_cb()</title>
<path fill="none" stroke="black" d="M468.307,-25.4804C458.248,-30.484 448.97,-36.8849 440.975,-45 419.269,-67.0296 435.176,-154.582 422.975,-183 394.302,-249.779 353.662,-245.605 319.975,-310 306.674,-335.424 323.201,-352.693 301.975,-372 296.861,-376.651 291.204,-380.614 285.18,-383.982"/>
<polygon fill="black" stroke="black" points="283.499,-380.909 276.111,-388.504 286.622,-387.174 283.499,-380.909"/>
</g>
<!-- g_timeout_add_full()&#45;&gt;show_loading_message_cb() -->
<g id="edge15" class="edge"><title>g_timeout_add_full()&#45;&gt;show_loading_message_cb()</title>
<path fill="none" stroke="black" d="M1151.46,-353.714C1091.59,-318.556 947.306,-239.701 814.042,-212 651.704,-178.256 598.062,-158.938 440.975,-212 422.573,-218.216 319.712,-310.085 301.975,-318 290.014,-323.337 277.029,-327.62 263.933,-331.057"/>
<polygon fill="black" stroke="black" points="262.786,-327.735 253.912,-333.524 264.459,-334.532 262.786,-327.735"/>
</g>
</g>
</svg>
